<svg width="3662" height="1521" viewBox="0 0 3662 1521" fill="none" xmlns="http://www.w3.org/2000/svg">
<path fill-rule="evenodd" clip-rule="evenodd" d="M617.388 285.355C618.329 284.84 619.692 284.813 620.615 285.716C620.989 286.082 621.368 286.446 621.748 286.809C623.149 288.149 624.56 289.499 625.699 291.032C632.741 300.512 638.331 310.888 641.115 322.305C644.961 338.054 641.11 352.904 633.758 367.046C630.913 372.52 627.698 377.776 624.482 383.033C620.926 388.847 617.365 394.669 614.303 400.785C606.741 415.881 603.455 431.231 605.781 448.259C611.089 487.156 622.511 524.121 638.797 559.708C645.754 574.919 655.68 587.84 668.783 598.39C673.243 601.979 677.244 606.171 681.208 610.324L681.211 610.326L681.213 610.328C681.215 610.331 681.217 610.333 681.22 610.336L681.532 610.663C683.804 613.047 685.423 612.895 688.153 611.155C703.65 601.271 710.881 586.203 715.31 569.228C720.403 549.721 721.738 529.933 719.138 509.997C716.847 492.4 708.953 476.901 699.705 462.021C690.793 447.682 679.833 434.931 668.729 422.301C664.59 417.589 660.368 412.951 656.116 408.281C656.011 408.166 655.906 408.05 655.802 407.935C655.795 407.927 655.788 407.92 655.781 407.912C655.779 407.91 655.776 407.907 655.774 407.905C653.938 405.888 652.092 403.861 650.25 401.822C652.024 400.799 653.257 401.559 654.427 402.279L654.428 402.28C654.721 402.46 655.01 402.638 655.303 402.785C675.422 412.852 690.273 428.833 703.973 446.093C706.181 448.874 708.383 451.659 710.585 454.445L710.603 454.467L710.62 454.489C710.677 454.56 710.733 454.632 710.79 454.703C710.791 454.705 710.793 454.707 710.794 454.709C714.195 459.011 717.597 463.313 721.021 467.596C722.361 469.274 723.935 470.951 726.382 470.141C728.385 469.477 728.267 467.919 728.152 466.407C728.118 465.954 728.084 465.501 728.108 465.082C728.593 456.6 726.778 448.436 724.966 440.287C724.96 440.262 724.955 440.237 724.949 440.212C724.489 438.142 724.028 436.073 723.607 434C724.423 433.682 724.957 433.911 725.32 434.55C733.245 448.568 738.288 463.502 739.983 479.56C741.575 494.658 740.483 509.679 739.391 524.7C738.909 531.329 738.428 537.959 738.177 544.594C737.931 551.144 737.302 557.68 736.674 564.216L736.672 564.235C736.443 566.62 736.214 569.008 736.003 571.394C735.716 574.583 736.352 577.564 739.302 578.986C742.668 580.61 745.623 578.826 748.231 576.598C758.08 568.195 765.307 557.743 771.507 546.54C782.207 527.199 790.11 506.855 792.504 484.736C794.257 468.576 793.382 452.442 790.751 436.407C790.632 435.686 790.512 434.965 790.391 434.244L790.39 434.235C790.389 434.23 790.389 434.225 790.388 434.22C789.619 429.616 788.849 425.005 788.478 420.301L788.999 421.12C794.317 429.613 797.469 438.938 799.788 448.478C804.051 466.007 806.301 483.85 804.822 501.894C802.074 535.346 790.334 565.045 766.589 589.379C756.193 600.036 743.435 607.338 730.157 613.772C720.026 618.684 710.558 624.654 701.194 630.89C696.805 633.812 695.886 637.31 696.648 641.632C699.065 655.359 703.731 668.226 712.19 679.514C712.772 680.293 713.427 681.026 714.126 681.702C717.071 684.543 719.479 685.209 723.069 681.787C731.116 674.114 732.318 674.687 735.2 685.268C739.257 700.153 740.323 715.428 740.825 730.72C741.116 739.475 741.073 748.241 741.029 757.006C741.029 757.019 741.029 757.031 741.029 757.044C741.029 757.046 741.029 757.048 741.029 757.05C741.028 757.324 741.026 757.597 741.025 757.871C741.025 757.873 741.025 757.875 741.025 757.877C741.025 757.879 741.025 757.881 741.025 757.883C741.025 757.885 741.025 757.887 741.025 757.889C741.025 757.891 741.025 757.893 741.025 757.895C741.005 761.956 740.987 766.022 741.005 770.082C741.007 770.458 740.991 770.847 740.975 771.238C740.884 773.428 740.791 775.709 743.829 776.373C747.644 777.218 749.563 774.87 750.8 771.711C752.806 766.607 753.609 761.242 754.41 755.879C754.411 755.873 754.412 755.868 754.413 755.862L754.417 755.842C754.79 753.344 755.163 750.845 755.66 748.374C756.779 742.797 757.461 737.129 758.143 731.468C758.144 731.46 758.145 731.452 758.145 731.443L758.148 731.435L758.149 731.425L758.15 731.413C758.151 731.402 758.152 731.391 758.154 731.38C758.201 730.983 758.249 730.585 758.297 730.188C758.318 730.015 758.339 729.842 758.36 729.668C758.379 729.51 758.398 729.352 758.418 729.194C758.437 729.037 758.456 728.88 758.475 728.723C758.502 728.501 758.53 728.28 758.557 728.059C758.594 727.763 758.631 727.467 758.668 727.171C758.946 724.966 759.421 723.972 762.016 724.742C776.5 729.014 791.356 729.731 806.226 727.99C827.514 725.498 847.929 720.366 864.193 705.056C873.88 695.938 877.498 684.113 878.96 671.398C879.329 668.201 879.566 664.988 879.804 661.774C879.805 661.761 879.805 661.749 879.806 661.736L879.809 661.706L879.811 661.682C879.866 660.929 879.922 660.176 879.98 659.424C880.035 658.698 880.092 657.972 880.152 657.246C880.165 657.223 880.178 657.2 880.191 657.176C880.213 657.137 880.234 657.096 880.255 657.056C880.272 657.024 880.288 656.992 880.304 656.96L880.305 656.959C880.603 656.376 880.902 655.79 881.824 656.28C882.217 659.281 882.693 662.28 883.169 665.279C883.169 665.283 883.17 665.287 883.171 665.291L883.172 665.3L883.172 665.305C884.231 671.973 885.29 678.643 885.441 685.33C885.836 702.864 884.777 714.917 865.421 725.19C850.036 733.355 833.418 737.668 816.693 741.869C814.988 742.297 813.28 742.722 811.573 743.146C811.497 743.165 811.42 743.184 811.343 743.203L811.309 743.213L811.273 743.221C800.185 745.978 789.092 748.737 778.307 752.58C768.185 756.191 765.754 760.307 767.839 770.722C768.601 774.538 769.498 778.341 770.615 782.064C771.659 785.549 773.555 788.475 776.859 790.457C789.452 797.989 799.213 808.66 808.95 819.305L808.962 819.318C809.817 820.252 810.672 821.187 811.528 822.12C814.831 825.712 818.104 829.334 821.376 832.956C821.401 832.983 821.426 833.011 821.451 833.039C834.744 847.75 848.035 862.459 863.301 875.236C872.876 883.253 883.975 888.703 895.464 893.481C905.64 897.714 914.629 903.856 922.438 911.673C926.992 916.232 929.144 921.775 926.208 927.645C915.584 948.865 904.354 961.411 879.901 961.048C871.688 960.924 863.953 958.237 856.267 955.567C856.256 955.563 856.244 955.559 856.232 955.555C856.223 955.552 856.214 955.549 856.204 955.545L856.202 955.545C854.53 954.964 852.86 954.384 851.189 953.832C839.659 950.033 827.967 949.187 815.913 949.693C797.74 950.449 779.584 949.492 761.429 948.051C743.762 946.651 726.732 943 710.119 936.906C702.61 934.155 699.369 936.101 695.272 943.528C682.799 966.131 674.556 990.412 666.311 1014.7L666.297 1014.74L665.518 1017.03C665.293 1017.69 665.068 1018.36 664.842 1019.02C664.75 1019.29 664.657 1019.56 664.564 1019.84C664.388 1020.35 664.212 1020.87 664.035 1021.39C656.801 1042.59 649.526 1063.78 642.25 1084.96L641.8 1086.27C640.654 1089.61 639.508 1092.94 638.362 1096.28C638.165 1096.85 637.909 1097.41 637.51 1098.27C637.275 1098.78 636.992 1099.39 636.641 1100.18C636.579 1099.92 636.518 1099.66 636.458 1099.41C636.452 1099.39 636.447 1099.36 636.442 1099.34C636.343 1098.93 636.246 1098.52 636.151 1098.12C636.059 1097.73 635.969 1097.35 635.879 1096.97C635.692 1096.17 635.509 1095.39 635.329 1094.62C634.355 1090.47 633.473 1086.71 632.476 1082.98C632.286 1082.27 632.204 1081.46 632.122 1080.64L632.122 1080.64C632.122 1080.64 632.121 1080.64 632.121 1080.63C631.898 1078.41 631.668 1076.14 629.253 1075.5C626.324 1074.74 625.39 1077.02 624.524 1079.15C624.522 1079.15 624.52 1079.16 624.518 1079.16L624.517 1079.16C624.231 1079.86 623.952 1080.55 623.61 1081.09C607.369 1107.03 591.218 1133.03 575.067 1159.02C569.485 1168.01 563.903 1176.99 558.318 1185.97C557.803 1186.8 557.22 1187.59 556.48 1188.59C556.473 1188.6 556.466 1188.61 556.459 1188.62C556.053 1189.17 555.596 1189.79 555.081 1190.5C554.467 1185.8 554.846 1181.54 555.21 1177.44C555.211 1177.43 555.211 1177.42 555.212 1177.42C555.446 1174.78 555.674 1172.22 555.628 1169.64C555.513 1163.27 555.795 1156.9 556.077 1150.52C556.178 1148.23 556.279 1145.93 556.362 1143.64C556.375 1143.32 556.412 1142.99 556.45 1142.65C556.451 1142.64 556.452 1142.64 556.453 1142.63C556.605 1141.28 556.76 1139.9 555.359 1139.18C553.617 1138.28 552.258 1139.49 550.954 1140.64L550.678 1140.88C531.089 1158 507.822 1165.62 482.262 1164.77C453.281 1163.8 426.07 1155.05 399.989 1142.59C370.936 1128.71 344.627 1110.85 320.451 1089.64C293.025 1065.56 268.056 1039.38 247.766 1008.92C229.293 981.195 216.965 950.825 208.519 918.796L208.276 917.874C203.434 899.51 198.578 881.092 197.03 862.087C195.251 840.24 195.008 818.366 196.447 796.448C197.734 776.896 200.509 757.631 204.342 738.442C210.622 706.985 220.735 676.785 234.322 647.802C257.055 599.313 286.785 555.48 326.669 519.486C365.808 484.168 408.749 454.107 458.131 434.242C458.548 434.072 459.005 434.018 459.915 434.578L454.592 438.721C449.651 442.567 444.709 446.413 439.765 450.254C416.853 468.048 394.641 486.705 375.155 508.212C345.756 540.653 327.31 578.682 318.788 621.624C314.686 642.28 314.21 663.009 314.762 683.97C315.461 710.622 319.626 736.616 326.754 762.203C331.958 780.891 342.071 796.887 354.654 811.423C358.617 816.004 362.836 820.375 367.068 824.715C368.636 826.316 370.6 828.267 373.007 826.286C375.091 824.568 374.495 821.959 373.63 819.896C372.359 816.879 370.222 814.426 368.085 811.973C367.531 811.338 366.979 810.702 366.44 810.057C361.384 804.013 361.069 799.844 365.041 795.79C369.376 791.374 379.39 790.108 383.698 793.575C385.971 795.41 386.613 798.099 386.989 800.922C387.41 804.099 387.637 807.292 387.864 810.487C387.864 810.489 387.864 810.491 387.864 810.493L387.865 810.496C388.269 816.183 388.674 821.876 390.172 827.498C394.17 842.548 403.719 851.564 417.772 857.863C445.364 870.239 474.108 875.795 504.03 873.487C543.25 870.471 577.746 855.648 607.055 829.113C619.862 817.52 630.285 804.076 639.932 789.835C656.119 765.935 673.077 742.562 690.843 719.821C694.59 715.025 693.707 710.604 692.237 706.622C691.09 703.519 689.957 700.409 688.824 697.299L688.824 697.297C679.13 670.685 669.425 644.04 651.027 621.62C647.567 617.405 643.934 613.334 640.301 609.263C640.298 609.26 640.296 609.257 640.293 609.254L640.286 609.246C634.241 602.472 628.195 595.697 622.942 588.256C622.887 588.18 622.832 588.1 622.775 588.017C622.773 588.014 622.77 588.011 622.768 588.008C622.169 587.143 621.399 586.031 620.266 586.503C616.619 588.032 613.196 587.09 609.807 586.157C609.802 586.155 609.796 586.154 609.791 586.152C608.516 585.801 607.245 585.451 605.969 585.236C590.105 582.547 574.298 579.586 559.586 572.566C549.078 567.551 539.736 560.947 531.165 553.082L531.737 553.156C534.574 553.587 537.07 554.842 539.56 556.094L539.564 556.095C540.904 556.769 542.243 557.442 543.632 557.985C545.022 558.53 546.397 559.124 547.771 559.717L547.777 559.72C547.791 559.726 547.805 559.732 547.82 559.738C551.927 561.513 556.033 563.286 560.555 563.774C560.819 563.802 561.098 563.849 561.385 563.898C561.396 563.9 561.407 563.901 561.418 563.903C562.867 564.147 564.502 564.422 565.365 562.616C566.268 560.725 565.063 559.229 563.961 557.859L563.872 557.748C560.962 554.135 557.992 550.569 555.022 547.004C555.003 546.982 554.985 546.959 554.966 546.937C547.612 538.108 540.257 529.276 533.806 519.736C525.468 507.41 519.079 494.243 515.896 478.182C519.855 482.139 522.599 486.151 525.235 490.005C525.236 490.007 525.237 490.009 525.238 490.011L525.243 490.017C525.244 490.019 525.245 490.02 525.246 490.022C525.247 490.024 525.248 490.025 525.25 490.027C525.251 490.029 525.252 490.031 525.253 490.033C526.166 491.367 527.067 492.683 528 493.971C539.516 509.858 551.213 525.593 565.396 539.292C577.114 550.612 590.078 560.056 605.328 566.11C605.627 566.229 605.933 566.372 606.244 566.517C607.59 567.149 609.021 567.819 610.34 566.714C611.568 565.685 611.058 563.829 610.551 562.54C606.11 551.191 602.806 539.484 599.503 527.778C599.341 527.207 599.18 526.634 599.018 526.062C598.982 525.934 598.945 525.805 598.909 525.676C595.945 515.186 592.926 504.712 589.034 494.516C588.148 492.195 587.274 489.868 586.4 487.541C586.384 487.497 586.367 487.452 586.35 487.407C580.914 472.932 575.473 458.446 567.319 445.199C560.509 434.144 552.131 424.6 538.355 422.323C527.607 420.545 517.445 423.7 507.344 426.837L507.214 426.878C506.871 426.984 506.535 427.142 506.193 427.302C505.075 427.828 503.887 428.385 502.175 427.275C510.768 420.546 520.187 416.046 530.425 413.183C532.142 412.704 533.901 412.381 535.659 412.058L535.664 412.057C537.269 411.762 538.876 411.467 540.449 411.053C543.08 410.364 545.33 409.245 542.247 406.212C535.868 399.948 535.366 392.754 538.446 384.665C542.659 373.587 548.652 363.618 556.04 354.424C556.748 353.538 557.578 352.729 558.443 351.986C558.738 351.73 559.116 351.57 559.613 351.36C559.869 351.252 560.157 351.131 560.482 350.975L560.403 351.61C559.95 354.749 558.655 357.376 557.393 359.935C556.963 360.808 556.536 361.675 556.148 362.55C552.123 371.65 550.114 381.019 550.348 391.009C550.446 395.3 551.979 398.378 555.399 400.387C564.808 405.917 573.035 412.82 580.203 420.99C582.619 423.745 584.309 422.945 585.77 420.22C586.005 419.783 586.246 419.346 586.488 418.909C586.489 418.907 586.49 418.906 586.491 418.904C587.433 417.204 588.382 415.489 588.949 413.665C594.364 396.261 604.15 381.434 615.531 367.422C622.507 358.836 628.823 349.843 630.629 338.353C632.678 325.325 628.769 313.599 623.915 301.967C622.892 299.518 621.766 297.11 620.641 294.703C620.632 294.684 620.623 294.665 620.614 294.645C619.617 292.515 618.621 290.383 617.697 288.223C617.609 288.018 617.441 287.794 617.266 287.559L617.265 287.558C616.737 286.852 616.134 286.046 617.388 285.355ZM765.896 814.946C757.186 814.743 751.266 819.437 746.246 827.052C746.237 827.065 744.245 829.91 745.166 831.86C747.055 833.835 750.023 831.01 750.027 831.006C761.799 824.515 777.172 829.705 780.682 845.251C780.689 845.282 781.568 849.137 783.496 849.182C786.378 849.249 787.441 845.464 787.457 845.409C793.67 828.157 779.469 814.295 766.864 814.968L765.896 814.946Z" fill="#FCD02F"/>
<path d="M639.369 690.898C639.517 682.451 646.371 677.807 654.494 680.577C662.8 683.413 665.822 690.473 667.853 697.868C671.668 711.755 666.544 723.934 659.165 735.714C659.349 722.74 652.969 713.017 644.568 704.141C641.135 700.508 639.279 696.043 639.369 690.898Z" fill="#FCD02F"/>
<path d="M500.362 457.757C493.84 465.108 489.038 473.153 486.25 482.544C483.386 492.19 483.695 501.912 485.116 511.526C486.605 521.611 482.193 538.286 469.987 541.556C461.277 543.896 453.105 540.992 448.891 532.984C442.265 520.399 444.851 508.05 450.226 495.957C455.951 483.08 465.746 473.895 478.007 467.318C478.092 467.272 478.178 467.226 478.263 467.181C478.57 467.016 478.877 466.851 479.184 466.686C479.186 466.685 479.188 466.684 479.19 466.683C485.884 463.082 492.62 459.46 500.362 457.757Z" fill="#FCD02F"/>
<path fill-rule="evenodd" clip-rule="evenodd" d="M978.522 1076.31C982.431 1076.3 983.812 1076.94 983.668 1081.23C982.678 1111.56 973.81 1139.67 959.99 1166.38C944.636 1196.03 923.922 1221.03 895.223 1238.83C881.528 1247.32 866.752 1253.05 850.749 1255.5C847.346 1256.03 845.93 1255.4 845.961 1251.34C846.118 1229.63 846.101 1207.91 846.084 1186.19V1186.16C846.078 1179.35 846.073 1172.54 846.073 1165.73C846.073 1158.88 846.077 1152.03 846.082 1145.17C846.082 1145.07 846.082 1144.98 846.082 1144.88C846.096 1123.62 846.11 1102.36 845.988 1081.1C845.966 1077.27 847.001 1076.3 850.834 1076.31C893.398 1076.46 935.963 1076.46 978.522 1076.31ZM891.532 1115.77C888.629 1115.7 887.638 1116.64 887.57 1119.54C888.289 1130.19 888.019 1141.78 887.771 1152.41L887.771 1152.41C887.522 1163.03 887.274 1173.66 887.993 1184.31C887.98 1184.34 886.97 1187.19 888.871 1188.19L892.788 1186.35C899.675 1181.68 905.618 1176.02 910.615 1169.37C922.568 1155.15 928.759 1138.86 933.059 1120.6C934.095 1117.73 934.117 1116.76 930.246 1116.67L891.532 1115.77Z" fill="#FCD02F"/>
<path fill-rule="evenodd" clip-rule="evenodd" d="M703.617 1076.35C736.098 1076.49 768.58 1076.43 801.058 1076.34L801.615 1076.35C804.306 1076.41 805.548 1077.09 805.002 1080.29C800.725 1105.23 791.818 1127.89 772.726 1145.49C770.632 1147.42 768.366 1149.17 765.926 1151.05C765.925 1151.05 765.923 1151.06 765.922 1151.06C764.749 1151.96 763.535 1152.9 762.281 1153.9C775.716 1161.17 787.268 1169.8 797.368 1180.43C815.443 1199.44 825.228 1222.06 827.716 1248.01C828.11 1252.13 827.326 1253.8 822.445 1253.77C778.097 1253.55 733.747 1253.58 689.399 1253.73C685.356 1253.75 684.245 1252.85 684.258 1248.69C684.411 1193.11 684.401 1137.54 684.271 1081.97C684.262 1077.76 684.957 1076.25 689.695 1076.27L703.617 1076.35ZM728.437 1174.65C726.502 1174.6 726.48 1175.57 726.412 1178.46V1178.46L725.644 1211.31C725.599 1213.24 726.522 1215.19 729.425 1215.26C736.816 1214.94 744.202 1214.87 751.715 1214.8C751.734 1214.8 751.754 1214.8 751.773 1214.8H751.775C759.02 1214.73 766.39 1214.66 773.991 1214.37C763.796 1194.8 750.562 1180.96 730.351 1175.66L728.437 1174.65ZM728.992 1109.48C727.057 1109.44 726.088 1109.41 726.043 1111.35C725.93 1116.18 726.065 1120.77 726.2 1125.36C726.334 1129.96 726.469 1134.55 726.356 1139.38C738.038 1136.75 750.959 1122.56 752.198 1110.99C752.238 1109.3 752.242 1109.09 750.946 1109.03L750.307 1109.01L728.992 1109.48Z" fill="#FCD02F"/>
<path fill-rule="evenodd" clip-rule="evenodd" d="M1094.05 1074.69C1096.98 1074.24 1098.16 1074.72 1098.03 1078C1097.85 1082.16 1097.89 1086.33 1097.92 1090.5C1097.94 1092.23 1097.95 1093.97 1097.95 1095.7C1097.95 1106.33 1097.95 1116.97 1097.95 1127.6C1097.95 1127.82 1097.95 1128.04 1097.95 1128.26C1097.94 1168.47 1097.93 1208.68 1098.03 1248.89C1098.05 1252.62 1097.28 1253.86 1093.31 1253.74C1082.81 1253.43 1072.28 1253.5 1061.78 1253.72C1058.46 1253.79 1057.27 1253.13 1057.38 1249.54C1057.51 1245.69 1057.41 1241.83 1057.31 1237.96C1057.31 1237.96 1057.31 1237.96 1057.31 1237.96C1057.23 1234.78 1057.15 1231.59 1057.19 1228.42C1057.23 1225.55 1056.29 1224.82 1053.54 1224.84C1040.32 1224.95 1027.1 1224.97 1013.87 1224.88L1008.21 1224.84C1005.31 1224.81 1004.55 1225.72 1003.94 1228.56C1003.06 1232.59 1002.77 1236.66 1002.48 1240.74C1002.24 1244.12 1002 1247.5 1001.42 1250.85L1001.41 1250.89C1001.09 1252.77 1000.93 1253.7 998.685 1253.69C986.864 1253.58 975.039 1253.56 963.213 1253.68C959.802 1253.71 960.126 1251.73 960.408 1250C960.409 1250 960.409 1249.99 960.41 1249.99C960.416 1249.95 960.422 1249.91 960.428 1249.88C960.436 1249.83 960.443 1249.79 960.45 1249.74C960.473 1249.6 960.494 1249.46 960.511 1249.33C960.53 1249.17 960.545 1249.02 960.551 1248.87C961.165 1234.2 963.644 1219.83 967.718 1205.71C978.069 1169.85 995.678 1138.13 1022.56 1112.04C1042.57 1092.61 1065.92 1078.97 1094.05 1074.69ZM1055.74 1133.79C1054.76 1134.72 1053.8 1134.71 1053.78 1134.71C1035.97 1150.72 1023.88 1170.74 1014.65 1192.75C1013.62 1195.63 1014.56 1196.62 1017.47 1196.68C1029.1 1195.99 1040.72 1196.26 1052.33 1196.53C1056.2 1196.62 1057.19 1195.67 1057.28 1191.81C1056.63 1178.27 1056.93 1165.71 1057.22 1153.15C1057.38 1146.39 1056.57 1139.6 1055.74 1133.79Z" fill="#FCD02F"/>
<path fill-rule="evenodd" clip-rule="evenodd" d="M786.58 163.725C778.87 161.649 766.009 163.877 761.279 170.767C754.69 180.359 755.78 190.153 759.541 200.161C760.495 202.701 761.467 205.235 762.438 207.767L762.459 207.823C765.619 216.063 768.777 224.299 771.348 232.765C775.84 247.547 779.637 262.562 782.34 277.697C782.858 280.593 783.537 283.485 784.219 286.385C785.349 291.198 785.749 295.646 786.182 300.46C786.495 303.936 786.825 307.606 787.46 311.744C787.916 314.716 788.039 315.972 788.16 317.2C788.241 318.03 788.321 318.847 788.502 320.172C788.868 322.854 789.317 325.704 789.644 327.781L789.647 327.799L789.658 327.867C789.791 328.711 789.903 329.422 789.979 329.936C791.353 339.178 791.922 348.539 792.491 357.899L792.492 357.926L792.494 357.944C792.694 361.241 792.895 364.539 793.13 367.831C793.251 369.531 792.492 371.291 790.458 370.703C790.458 370.703 784.976 368.878 781.326 368.495L781.045 368.466C776.177 367.955 773.003 367.621 768.421 369.517C764.136 371.29 762.414 373.223 759.187 376.972C755.96 380.721 752.627 381.548 750.167 380.721C740.668 377.513 730.904 374.73 721.185 372.837C719.394 372.488 717.603 372.126 715.813 371.758L710.44 370.642L710.426 370.639C700.858 368.638 691.273 366.634 681.518 365.554C674.767 364.802 674.457 363.805 676.815 356.821C678.743 351.103 679.715 345.273 679.818 339.274C680.598 332.406 680.598 325.538 679.823 318.671C679.698 315.463 679.369 312.38 678.572 309.159C673.031 286.712 662.568 267.004 646.398 250.494C640.006 243.963 631.718 240.754 622.582 239.891C617.346 239.126 612.109 239.14 606.874 239.887C602.136 240.576 597.577 242.039 593.417 244.267C572.554 255.425 570.223 279.013 577.601 298.484C578.372 300.519 579.327 302.491 580.298 304.495C581.766 307.524 583.276 310.64 584.262 314.214C581.649 313.35 579.395 312.136 577.206 310.957L577.198 310.953C575.365 309.965 573.577 309.002 571.662 308.29C554.009 301.74 534.231 308.165 522.777 321.565C514.201 331.591 507.059 342.701 502.03 354.928C499.882 360.149 497.09 360.963 492.087 359.425C478.361 355.197 464.401 352.383 449.94 355.058C430.74 358.611 415.351 367.643 412.567 389.53C411.823 392.456 411.827 395.387 412.562 398.313C412.276 399.267 412.655 400.273 413.035 401.285C413.705 403.064 414.382 404.866 411.478 406.442C408.031 408.313 404.569 410.155 401.108 411.997L401.027 412.041C391.461 417.132 381.895 422.224 372.625 427.909C357.088 437.439 342.348 447.912 327.94 459.057C311.833 471.513 296.937 485.092 282.601 499.507C278.777 503.352 275.063 507.333 271.362 511.3L271.329 511.335L271.302 511.364C269.374 513.431 267.448 515.495 265.513 517.534C255.902 527.667 247.268 538.816 239.055 550.14C225.567 568.734 213.481 588.192 203.126 608.804C202.633 609.786 202.139 610.768 201.645 611.749L201.641 611.756L201.155 612.722C195.083 624.786 189.023 636.824 183.939 649.343C183.059 651.508 182.159 653.668 181.259 655.827C178.596 662.213 175.932 668.603 173.781 675.159C171.335 682.605 169.363 690.209 167.393 697.81L167.303 698.159C166.707 700.455 166.111 702.755 165.502 705.045C161.095 721.581 157.818 738.345 155.137 755.253C152.941 769.095 151.255 796.969 151.255 796.969C151.255 796.969 150.254 803.528 150.062 807.765C149.946 810.324 150.028 812.186 150.118 814.219C150.172 815.453 150.229 816.749 150.246 818.303C150.304 823.506 150.299 826.385 150.289 831.627L150.289 831.872C150.288 832.575 150.275 833.239 150.262 833.902C150.235 835.26 150.209 836.615 150.282 838.3C150.383 840.624 150.787 844.235 150.787 844.235L151.255 850.068C151.255 850.068 152.134 861.654 152.676 867.437L152.678 867.452C153.138 872.365 153.598 877.275 153.931 882.182C154.314 887.789 155.398 893.296 156.478 898.788C157.242 902.672 157.544 905.742 157.85 908.845C158.137 911.765 158.428 914.715 159.109 918.399C159.941 922.903 160.491 925.415 161.577 929.864L161.752 930.585C162.492 933.622 163.176 936.432 163.816 938.295C165.37 942.832 166.677 947.455 167.982 952.071C169.349 956.904 170.714 961.732 172.361 966.45C178 982.633 183.895 998.74 191.076 1014.36C198.177 1029.81 205.986 1044.85 214.593 1059.5C224.114 1075.7 234.738 1091.13 246.371 1105.92L247.013 1106.73L247.014 1106.73C257.19 1119.68 267.378 1132.64 279.086 1144.18C281.184 1146.25 283.259 1148.34 285.335 1150.44L285.356 1150.46C290.036 1155.18 294.724 1159.91 299.703 1164.37C315.572 1178.56 332.239 1191.71 349.404 1204.21C358.264 1210.66 367.79 1216.14 377.313 1221.62L377.339 1221.63L377.47 1221.71L377.498 1221.72L377.517 1221.73C379.836 1223.07 382.156 1224.4 384.464 1225.75C394.895 1231.84 405.444 1237.83 416.31 1242.84C428.794 1248.6 441.418 1254.2 454.086 1259.63C472.107 1267.36 490.792 1273.21 509.584 1278.47C525.502 1282.92 541.838 1285.97 558.289 1288.26C564.577 1289.13 570.822 1290.28 577.068 1291.43L577.114 1291.44L577.115 1291.44C583.526 1292.62 589.942 1293.81 596.411 1294.69C617.413 1297.55 638.546 1299.3 659.65 1299.63C692.241 1300.14 724.838 1300.04 757.437 1299.93C770.691 1299.89 789.561 1299.96 789.561 1299.96H836.027C836.027 1299.96 848.55 1299.72 854.814 1298.98L855.029 1298.96C876.698 1296.42 896.549 1288.82 915.22 1277.93C915.368 1277.85 915.512 1277.76 915.654 1277.68L916.079 1277.43C921.928 1274 921.967 1273.98 926.382 1279.7C926.515 1279.87 926.645 1280.05 926.774 1280.22L926.836 1280.31L926.941 1280.45L926.987 1280.51L927.049 1280.6L927.122 1280.7C927.55 1281.29 927.978 1281.88 928.461 1282.42C935.36 1290.17 943.206 1296.37 954.193 1296.54C960.481 1296.64 966.772 1296.65 973.062 1296.67H973.152C982.426 1296.69 991.698 1296.7 1000.96 1297C1010.53 1297.32 1019.3 1295.57 1026.68 1289.49C1029.81 1286.91 1031.75 1287.97 1034.17 1289.91C1040.14 1294.71 1047.02 1296.9 1054.65 1296.9C1057.13 1296.9 1059.6 1296.9 1062.08 1296.9L1067.85 1296.9V1296.97H1088.69C1116.44 1296.97 1138.93 1286.15 1138.93 1246.82V1069.64C1138.93 1047.87 1126.09 1042.34 1117.44 1038.61L1117.43 1038.6C1117.04 1038.43 1116.65 1038.27 1116.28 1038.1C1112.15 1036.3 1116.84 1035.36 1123.5 1034.03C1130.7 1032.59 1140.21 1030.7 1143.29 1026.74C1144.45 1025.37 1145.48 1025.64 1147.09 1026.44C1162.62 1034.14 1179.8 1030.34 1188.41 1013.81C1189.61 1011.5 1190.92 1010.44 1193.65 1010.42C1198.04 1010.39 1202.47 1010.06 1206.81 1009.38C1212.89 1008.42 1218.03 1005.32 1222.43 1001.12C1229.19 994.669 1231.48 986.204 1231.87 977.323C1232.08 972.483 1232.2 967.435 1230.29 962.706C1226.25 952.715 1219.69 944.863 1210.53 939.163L1210.43 939.102C1209.67 938.627 1208.68 938.01 1209.09 936.895C1209.53 935.683 1211.56 936.313 1211.56 936.313C1211.56 936.313 1214.19 936.825 1215.89 936.895C1218.36 936.998 1219.83 936.978 1222.35 936.895C1224.39 936.828 1225.12 936.75 1226.39 936.611C1227.48 936.493 1228.97 936.331 1232.03 936.095C1235.91 935.796 1238.59 935.519 1241.51 935.217L1241.53 935.215L1241.54 935.214L1241.55 935.213L1241.56 935.212L1241.58 935.209C1243.64 934.996 1245.83 934.769 1248.64 934.513L1248.73 934.504C1251.28 934.273 1253.82 934.041 1256.37 933.844C1273.11 932.551 1289.61 930.05 1305.83 925.741C1314.99 923.307 1324.2 920.654 1332.21 915.661C1342.3 909.371 1349.45 900.458 1349.98 887.904C1350.35 879.198 1349.25 870.827 1342.99 863.798C1334.7 854.501 1324.1 851.777 1312.46 853.253C1306.75 853.973 1306.04 851.083 1306.2 847.365C1306.87 832.212 1289.92 813.281 1273.41 811.693C1268.5 810.928 1263.6 810.946 1258.69 811.689C1257.66 811.999 1256.63 812.279 1255.59 812.558L1255.58 812.561L1255.57 812.565C1253.48 813.128 1251.39 813.691 1249.35 814.511C1242.46 817.275 1237.02 822.008 1231.6 826.725C1229.43 828.613 1227.26 830.5 1225 832.256C1210.23 843.75 1193.73 851.713 1176.31 857.95L1176.07 858.037C1173.67 858.903 1170.38 860.091 1167.1 858.027C1174.48 852.067 1178.44 844.663 1178.97 835.303C1179.67 823.04 1176.63 812.338 1165.35 806.199C1153.16 799.569 1140.3 799.886 1127.81 806.002C1124.56 807.596 1121.6 809.686 1118.64 811.779L1118.63 811.786C1114.81 814.492 1110.97 817.204 1106.46 818.865C1102.99 820.149 1101.59 818.78 1100.42 816.118C1100.09 815.357 1099.9 814.534 1099.71 813.712C1099.67 813.555 1099.64 813.397 1099.6 813.24C1099.57 813.113 1099.54 812.987 1099.51 812.861C1098.03 807.046 1094.64 802.331 1091.26 797.616C1089.9 795.719 1088.54 793.821 1087.3 791.851C1087.23 791.741 1087.15 791.62 1087.07 791.495C1086.45 790.534 1086.32 789.961 1086.51 788.969C1086.85 787.246 1090.22 785.336 1090.22 785.336C1090.22 785.336 1097.09 780.94 1101.34 777.896C1102.75 776.886 1103.92 776.079 1104.98 775.349C1108.46 772.959 1110.75 771.384 1116.22 766.152C1127.18 755.674 1136.93 744.117 1142.78 729.845C1142.86 729.644 1142.94 729.444 1143.02 729.243C1143.12 729.001 1143.22 728.758 1143.32 728.516L1143.33 728.495C1143.44 728.239 1143.55 727.981 1143.65 727.724L1143.93 727.07L1143.93 727.06L1143.94 727.047C1146.97 719.778 1150 712.498 1150.19 704.396C1150.94 700.151 1150.94 695.909 1150.19 691.663C1150.08 690.789 1149.98 689.913 1149.89 689.037L1149.89 689.018C1149.69 687.15 1149.49 685.28 1149.16 683.436C1146.84 670.506 1141.41 658.792 1131.95 649.867C1117.01 635.765 1099.26 631.586 1079.4 638.458C1070.15 641.657 1063.65 647.38 1061.41 657.223C1061.09 659.929 1059.74 660.882 1056.88 660.748C1056.56 660.733 1056.25 660.715 1055.93 660.696C1055.81 660.689 1055.69 660.681 1055.56 660.673L1055.13 660.646L1055.12 660.645L1055.1 660.644C1052.29 660.465 1049.45 660.283 1046.68 661.11C1034.11 661.848 1020.33 676.148 1019.23 688.984C1018.87 693.211 1017.72 696.151 1012.25 695.677C1000.5 694.657 990.558 699.547 981.305 706.204C980.906 706.492 980.547 706.929 980.188 707.366C979.416 708.307 978.646 709.243 977.486 708.669C976.116 707.994 976.331 706.496 976.534 705.078C976.603 704.599 976.669 704.129 976.674 703.703C976.741 697.489 975.159 692.097 971.64 686.702C968.574 682 964.431 679.306 960.065 676.505L959.967 676.443L959.907 676.404C959.856 676.372 959.803 676.338 959.752 676.306C958.52 675.535 957.382 674.822 959.24 673.329C960.983 671.932 962.682 670.481 964.382 669.031L964.407 669.009C968.531 665.49 972.654 661.971 977.387 659.199C978.9 658.312 980.449 657.455 982.002 656.597L982.011 656.592C986.954 653.857 991.929 651.106 995.861 647.308C1003.63 639.805 1006.79 629.46 1005.81 618.826C1004.53 605.064 996.318 595.297 984.568 588.47C976.033 583.508 966.673 581.776 956.734 582.326C957.673 579.834 959.557 578.444 961.396 577.087C962.192 576.5 962.979 575.919 963.678 575.257L964.399 574.577L964.893 574.11L965.581 573.459C972.552 566.866 979.541 560.257 986.989 554.234C1004.24 540.279 1007.91 523.89 1002.48 504.612C1001.02 499.44 1001.74 496.747 1005.32 492.971C1016.88 480.77 1022.54 466.725 1016.31 449.813C1010.95 435.255 1000.26 426.348 985.318 424.307L985.171 424.287L985.093 424.277L985 424.263L984.894 424.248L984.668 424.217L984.539 424.198L984.449 424.186C984.355 424.172 984.264 424.158 984.174 424.145L984.041 424.124L983.876 424.098L983.862 424.095C983.52 424.041 983.173 423.986 982.746 423.936C976.672 423.229 967.283 426.392 967.283 426.392C967.283 426.392 962.389 428.007 959.593 429.7C957.299 431.09 956.112 432.06 954.161 433.9C942.685 444.723 940.839 459.433 942.888 473.446C943.066 474.672 943.348 475.801 943.609 476.847C944.506 480.437 945.155 483.032 940.472 485.111C938.598 485.947 935.634 487.66 933.428 490.252C933.292 490.412 933.176 490.557 933.068 490.696C933.022 490.754 932.978 490.812 932.934 490.868L932.925 490.881C932.833 491 932.738 491.123 932.64 491.244C925.965 499.472 920.262 508.361 914.959 517.524C914.79 517.815 914.643 518.161 914.491 518.517L914.484 518.533C913.845 520.032 913.129 521.709 910.468 520.325C907.312 518.687 906.411 516.633 908.141 513.403C909.344 511.157 910.578 508.925 911.81 506.696L911.822 506.676C914.68 501.508 917.537 496.342 920.012 490.962C922.392 485.797 924.869 480.673 927.345 475.552L927.366 475.507L927.389 475.458L927.393 475.451L927.397 475.441L927.411 475.412C930.755 468.495 934.098 461.579 937.208 454.56C941.31 445.304 944.811 435.77 948.276 426.249C948.769 424.892 949.272 423.536 949.775 422.18C952.943 413.635 956.119 405.07 957.098 395.919C957.448 392.68 959.357 391.485 961.948 390.572C968.161 388.38 972.32 385.151 977.589 379.996C981.794 375.883 983.758 373.104 986.738 368.037C993.628 356.322 997.031 346.552 995.269 334.312C993.055 318.899 979.911 306.416 965.727 303.857C962.468 303.114 959.745 303.412 955.955 303.861C948.361 304.76 943.071 306.841 937.598 310.661L937.51 310.723C933.36 313.616 933.229 313.706 932.343 308.398C930.03 294.538 922.096 285.683 908.804 281.11C893.886 275.979 871.58 281.254 864.268 299.168C864.093 299.598 861.986 303.772 861.986 303.772L859.873 295.075C859.873 295.075 858.514 286.273 857.449 280.668L857.27 279.722C856.201 274.094 855.892 272.462 853.931 264.315C846.386 233.028 833.018 204.524 810.474 180.977L810.031 180.513C803.327 173.508 796.532 166.409 786.58 163.725ZM1067.85 1296.9C1064.39 1296.9 1061.92 1296.89 1066.66 1296.88C1066.73 1296.88 1066.79 1296.88 1066.86 1296.88L1066.96 1296.87L1067.05 1296.87L1067.11 1296.87L1067.17 1296.87C1067.22 1296.87 1067.27 1296.87 1067.31 1296.86L1067.48 1296.86L1067.56 1296.86C1067.66 1296.85 1067.75 1296.85 1067.85 1296.85V1296.9ZM1067.85 1296.9L1069.27 1296.9C1070.33 1296.9 1071.42 1296.9 1072.35 1296.9H1071.84L1069.84 1296.9L1067.85 1296.9ZM1040.87 1045.8C1047.87 1036.3 1055.84 1026.82 1065.7 1019.32C1069.44 1025.2 1073.2 1030.12 1079.88 1034.14C1066.89 1036.42 1056.17 1040.29 1045.02 1044.31L1045 1044.32L1044.04 1044.66L1043.42 1044.88L1042.9 1045.07L1042.43 1045.24C1042.1 1045.36 1041.77 1045.48 1041.43 1045.6L1040.87 1045.8ZM1104.56 992.247C1111.61 992.571 1117.12 993.506 1121.87 997.483C1125.65 1001.44 1126.5 1006.29 1124.45 1011.07C1122.4 1015.86 1118.49 1017.7 1113.63 1018.55C1113.63 1018.55 1107.47 1019.06 1103.62 1018.4C1099.02 1017.6 1097.19 1017.2 1092.42 1014.19C1085.78 1008.24 1086.85 998.405 1093.87 993.931C1094.44 993.563 1096.95 992.744 1099.02 992.41C1101.04 992.084 1102.26 992.14 1104.22 992.231L1104.56 992.247ZM1040.86 692.969C1041.94 688.161 1044.91 685.33 1049.77 684.477L1051.71 684.522C1056.55 684.635 1059.41 686.635 1062.22 690.566C1065.03 694.497 1066.88 698.406 1066.77 703.235C1066.63 709.031 1065.57 712.873 1059.72 714.669C1054.84 716.489 1050 716.376 1046.19 713.388C1039.53 708.401 1037.78 700.628 1040.86 692.969ZM964.997 458.562C967.819 453.384 971.019 450.185 976.837 449.173C985.207 447.717 993.178 454.385 994.955 461.192C997.678 468.987 994.616 475.681 988.651 482.308C983.722 486.059 977.847 488.821 972.086 486.755C966.324 484.688 963.668 473.994 963.668 473.994C963.668 473.994 962.101 463.876 964.997 458.562ZM448.94 381.309C454.814 378.546 460.667 376.75 464.538 376.84L465.506 376.862C481.958 377.245 493.484 381.38 505.007 385.514C506.92 386.525 507.866 387.513 508.788 389.467C508.743 391.399 506.785 392.32 504.826 393.241C497.045 394.717 489.23 397.455 481.419 400.193C475.563 402.245 469.702 404.299 463.858 405.819C460.933 406.717 458.008 407.615 456.073 407.57C449.298 407.413 443.581 403.413 441.781 397.573C439.98 391.732 443.065 384.072 448.94 381.309ZM951.806 335.749C955.796 331.062 959.442 327.861 965.6 328.1C969.824 328.263 972.715 329.213 975.557 332.336C979.743 336.936 978.425 342.215 976.758 348.201C974.908 354.847 965.943 362.181 965.943 362.181C965.943 362.181 955.755 370.642 950.156 367.366C944.74 364.196 946.516 351.735 946.516 351.735C946.516 351.735 947.54 340.759 951.806 335.749ZM897.841 307.143C905.606 306.358 911.278 312.289 911.075 320.983C910.872 329.676 906.886 334.415 897.208 334.19C888.498 333.987 883.749 330.011 883.952 321.317C884.178 311.658 888.162 306.918 897.841 307.143ZM1094.89 659.934C1091.02 659.844 1088.09 660.742 1085.17 661.64C1085.13 661.651 1082.24 662.55 1082.2 664.47C1082.16 666.047 1082.8 666.353 1084.08 666.962C1084.08 666.962 1089.02 668.629 1091.74 670.492C1102.93 678.161 1102.86 692.014 1098.69 704.481C1091.47 723.642 1079.49 738.828 1064.63 752.979C1045.82 770.904 1023.22 784.875 996.905 791.995C991.815 793.372 989.962 795.968 989.962 795.968C993.676 797.616 1000.88 796.735 1007.52 795.923C1009.53 795.677 1011.49 795.437 1013.29 795.276C1040.53 790.111 1065.96 779.105 1087.66 762.213C1101.46 751.903 1113.37 739.615 1120.52 723.352C1128.7 705.179 1125.52 684.477 1116.9 671.078C1112.25 663.238 1103.6 660.137 1094.89 659.934ZM1302.48 878.611C1305.58 876.988 1308.81 875.297 1312.58 875.385C1319.36 875.543 1323.18 877.565 1325.01 882.439C1325.86 887.291 1323.79 893.042 1318.86 896.794C1310.04 901.42 1301.26 904.116 1291.54 905.823C1263.29 912.897 1237.33 918.471 1204.4 918.671C1171.47 918.87 1136.94 923.992 1136.94 923.992C1135.55 924.139 1134.29 924.27 1133.61 922.822C1132.69 920.868 1134.64 919.946 1136.6 919.025C1141.51 916.24 1146.39 914.421 1152.22 913.59C1162.37 911.587 1172.48 910.88 1182.78 910.16C1190.26 909.637 1197.85 909.106 1205.61 908.067C1238.59 905.935 1269.52 894.678 1299.89 879.921C1300.75 879.517 1301.61 879.067 1302.48 878.611ZM780.463 191.546C779.077 192.867 779.588 194.231 780.335 195.602L780.995 196.776C781.102 196.972 781.203 197.168 781.296 197.364C797.724 240.271 808.299 284.976 813.045 330.511C815.452 351.83 816.869 374.093 816.373 395.344C816.192 403.071 813.13 409.765 807.188 415.425C805.988 416.927 804.374 416.927 803.316 415.335C798.635 408.461 793.954 401.587 787.27 397.566C780.562 394.51 772.253 399.005 771.581 405.899C771.581 405.899 771.022 413.705 768.474 414.525C766.63 416.089 759.447 412.976 752.006 409.752C748.021 408.026 743.962 406.267 740.61 405.177C709.842 395.763 678.96 391.178 647.067 388.503C643.195 388.412 643.217 387.446 644.253 384.571C646.236 382.056 647.805 379.108 649.227 376.294L649.293 376.162L649.444 375.864C649.499 375.755 649.554 375.646 649.608 375.538L649.83 375.095L649.855 375.046L649.857 375.04L649.861 375.034L649.864 375.026L649.87 375.014L649.873 375.01C650.365 374.029 650.845 373.071 651.322 372.171C660.439 354.987 662.804 336.679 659.361 318.235C655.851 302.69 647.456 288.964 637.103 276.159C632.4 270.251 625.692 267.195 617.95 267.014C605.368 266.721 596.454 275.212 598.119 286.848C598.418 287.82 598.611 288.794 598.803 289.763C599.188 291.704 599.574 293.649 600.819 295.611C601.923 298.357 603.184 301.109 604.474 303.923C605.082 305.249 605.696 306.589 606.303 307.95C607.612 310.88 608.889 313.904 610 317.086C614.569 328.79 613.353 339.394 605.362 349.839C604.299 351.187 603.222 352.535 602.141 353.887L602.075 353.97L602.071 353.974C594.044 364.02 585.804 374.332 581.252 386.97C579.516 389.545 577.015 389.545 574.675 389.545C571.447 389.545 567.681 387.621 569.797 379.939C570.923 373.199 573.985 366.505 577.023 360.777C581.107 352.34 579.578 343.772 573.87 338.104C572.467 336.71 570.81 335.492 568.922 334.494C563.183 331.461 551.523 333.122 546.571 337.839C545.086 339.254 543.594 340.911 542.103 342.567L542.093 342.578C540.605 344.231 539.116 345.885 537.634 347.296C536.337 349.477 535.02 351.62 533.716 353.741L533.702 353.764C525.89 366.47 518.507 378.481 518.139 394.2C518.094 396.131 517.081 398.041 514.155 398.939C508.756 400.597 503.227 402.121 497.615 403.656L496.495 403.962L496.485 403.965L496.462 403.972C487.234 406.495 477.789 409.078 468.328 412.37C396.052 438.715 334.039 481.73 283.28 540.471C242.469 587.845 214.104 641.309 196.251 700.815C186.773 733.455 181.144 767.151 179.386 800.937C177.99 819.268 178.529 837.643 180.036 856.042C181.452 878.304 184.804 900.611 189.147 921.975C199.678 968.611 217.073 1011.54 242.28 1051.75C270.232 1098.8 307.052 1139.28 350.828 1172.19C377.454 1193.11 406.129 1209.24 435.816 1223.46C456.905 1232.65 477.995 1241.84 500.097 1249.12C524.136 1256.44 550.155 1261.88 575.229 1266.33C603.206 1270.85 631.206 1274.4 659.296 1274.09L664.56 1274.2L827.683 1274.15H849.023C882.433 1274.15 904.636 1259.5 927.371 1239.74L943.218 1224.64L943.18 1225.77C943.065 1228.35 942.78 1230.75 942.506 1233.04L942.503 1233.06C942.217 1235.47 941.943 1237.77 941.889 1240.07L941.572 1253.6C941.324 1264.22 948.886 1272.13 958.565 1272.36C965.819 1272.52 973.322 1272.46 980.824 1272.39H980.837L980.899 1272.39H980.909C988.391 1272.32 995.873 1272.26 1003.11 1272.43C1007.95 1272.54 1010.9 1270.67 1014.84 1267.87C1019.81 1262.18 1021.07 1255.45 1021.07 1249.65C1021.07 1245.88 1021.29 1244.07 1024.93 1244.07H1034.39C1036.76 1244.07 1037.84 1245.34 1037.84 1249.65C1037.84 1253.96 1038.36 1255.85 1038.36 1255.85C1039.14 1263.6 1045.76 1270.52 1053.48 1271.67C1062.19 1271.87 1061.51 1271.89 1061.51 1271.89H1066.07C1066.45 1271.89 1066.81 1271.89 1067.15 1271.89C1067.62 1271.89 1068.06 1271.89 1068.49 1271.89H1068.5H1068.5H1068.51C1069.88 1271.88 1071.1 1271.87 1072.8 1271.89C1075.34 1271.93 1077.59 1272.08 1077.59 1272.08C1116.49 1271.89 1116.49 1271.67 1116.49 1231.78L1116.41 1074.78C1116.41 1060.12 1110.9 1059.04 1097.45 1056.9C1088.84 1056.9 1074.96 1061.19 1074.96 1061.19C1042.31 1069.27 1008.14 1098.58 1001.21 1105.18C1002.67 1083.95 1006.24 1060.39 1017.29 1043.25C1017.93 1042.22 1018.55 1041.22 1019.15 1040.25L1020.22 1038.52C1028.98 1024.35 1037.28 1014.59 1053.44 1001.6C1063.79 993.267 1072.42 987.719 1082.49 983.878C1099.56 977.366 1121.74 979.365 1129.29 983.878C1135.99 987.883 1136.74 988.649 1140.5 992.456L1140.5 992.465C1140.98 992.946 1141.5 993.475 1142.09 994.065L1142.09 994.072C1142.85 994.902 1145.47 997.766 1147.94 1000.35C1150.78 1003.32 1153.62 1006.28 1157.46 1007.34C1161.31 1008.39 1166.2 1006.57 1167.26 1002.73C1167.37 997.902 1167.5 992.107 1162.76 988.13C1158.03 983.188 1152.29 980.155 1146.53 978.088C1146.32 978.015 1146.11 977.946 1145.89 977.88C1145.53 977.772 1145.15 977.67 1144.76 977.568C1142.05 976.848 1139.01 976.042 1139.89 972.134C1140.97 967.327 1144.84 967.417 1148.69 968.473C1161.25 969.732 1171.78 974.809 1182.27 981.819L1182.28 981.824C1185.13 983.821 1187.99 985.819 1190.87 986.852C1200.48 989.975 1207.34 986.268 1207.59 975.643C1207.77 967.916 1203.05 962.973 1197.35 958.008C1184.97 949.022 1170.43 949.65 1154.9 951.221C1153.48 951.346 1152.05 951.495 1150.62 951.646C1143.29 952.419 1135.85 953.204 1127.8 950.59C1116.28 946.456 1111.73 933.786 1118.76 923.318C1125.78 912.85 1135.59 907.279 1147.28 904.652C1155.47 902.136 1163.62 901.514 1171.76 901.128L1178.74 900.818C1179.29 900.792 1179.85 900.765 1180.4 900.736C1180.66 900.722 1180.93 900.708 1181.19 900.693L1181.46 900.678L1181.74 900.662C1181.9 900.653 1182.07 900.643 1182.23 900.633L1182.24 900.633C1197.77 899.062 1213.3 897.49 1228.89 893.022C1244.47 889.518 1260.11 883.116 1272.94 872.784C1282.8 865.281 1284.04 853.712 1280.37 844.928C1274.83 833.202 1260.36 830.932 1250.48 839.4C1232.7 854.45 1213.02 867.523 1190.56 875.699C1174.92 882.1 1158.4 884.615 1141.94 884.232C1134.2 884.052 1126.52 880.973 1121.82 875.065C1114.26 867.157 1115.45 857.52 1126.21 852.938C1130.13 851.096 1134.05 849.255 1138.91 848.401C1143.79 846.582 1147.71 844.74 1151.65 841.932C1156.6 837.215 1156.82 827.555 1151.04 826.454C1147.21 824.432 1142.4 823.354 1137.49 826.139L1128.64 831.732C1121.76 836.404 1113.92 840.087 1106.11 842.805C1096.39 844.512 1085.79 842.332 1082.16 831.616C1081.25 829.677 1080.34 827.498 1079.43 825.319L1079.41 825.27C1078.49 823.074 1077.57 820.878 1076.65 818.924C1072.06 808.186 1064.47 801.243 1052.88 800.007C1042.26 798.793 1030.62 799.489 1019.93 801.173C1007.28 803.778 994.677 804.451 982.095 804.159C978.224 804.068 977.279 803.08 979.305 799.262C987.431 783.021 997.471 767.79 1009.45 752.605C1010.11 751.815 1010.77 751.052 1011.44 750.302L1015.41 745.858C1017.4 743.609 1019.4 741.239 1021.4 738.386C1026.4 731.737 1023.74 721.044 1016.02 719.898C1010.24 718.797 1004.41 719.627 999.499 722.412C998.654 723.056 997.837 723.672 997.045 724.269L997.037 724.275C993.213 727.159 989.949 729.621 986.669 732.745C984.3 734.498 982.067 736.322 979.862 738.124L979.85 738.134C973.806 743.073 967.971 747.842 960.108 750.49C954.256 752.286 949.462 750.242 945.681 746.288C941.9 742.334 941.022 738.447 943.071 733.663C945.163 726.95 948.205 721.217 951.242 715.492C954.258 710.73 956.307 705.943 952.549 701.023C948.971 696.34 944.373 697.764 938.89 699.461L938.859 699.471C938.592 699.553 938.324 699.636 938.054 699.719C936.096 700.64 934.182 699.628 932.314 696.686C929.524 691.789 927.701 686.914 929.749 682.129C931.843 675.413 934.882 669.685 939.857 664.002C950.205 652.357 962.187 645.074 975.094 637.229L975.834 636.778C976.325 636.479 976.819 636.179 977.313 635.878C984.2 631.206 985.325 624.467 980.644 617.593C973.172 605.821 951.948 602.428 940.963 616.67C939.081 619.526 937.33 622.52 935.614 625.549L932.197 631.623C930.481 634.652 928.73 637.649 926.847 640.505C923.786 647.198 920.725 653.892 914.806 658.586C910.844 662.359 906.972 662.269 903.169 659.281C894.594 653.283 891.916 643.556 894.077 633.941C897.229 623.383 902.272 614.802 908.282 606.243C920.751 588.488 936.992 573.112 952.971 557.985L953.106 557.857C955.053 556.013 956.997 554.173 958.929 552.333C965.839 546.695 972.749 541.057 978.714 534.431C984.702 526.838 983.06 514.235 975.498 506.327C968.859 500.374 956.232 502.013 950.267 508.639C945.152 513.512 942.143 518.433 938.902 523.737L938.893 523.751C937.744 525.631 936.565 527.561 935.252 529.553C931.889 535.584 928.738 541.728 925.587 547.871L925.57 547.905C919.257 560.215 912.943 572.525 904.93 583.936C904.675 584.26 904.427 584.576 904.185 584.885C901.581 588.211 899.599 590.742 896.016 592.427C891.132 594.246 887.328 591.258 887.418 587.395C887.463 585.463 888.476 583.554 889.489 581.644C891.923 575.599 896.152 570.197 900.283 564.92L900.288 564.913L900.293 564.906L900.294 564.905L900.295 564.904C901.394 563.5 902.486 562.105 903.535 560.709C906.552 555.947 905.697 551.093 902.906 546.196C900.115 541.299 894.331 540.198 888.502 541.029C883.939 541.829 882.726 545.262 881.738 548.057L881.724 548.098C881.664 548.267 881.605 548.435 881.546 548.598C875.355 564.884 870.155 580.228 864.932 596.537C864.386 597.812 863.907 599.157 863.423 600.516C862.092 604.256 860.724 608.1 857.818 610.868C854.824 614.664 848.972 616.46 846.114 614.461C841.32 612.417 838.551 606.553 839.654 600.78C840.758 595.007 842.806 590.222 845.823 585.46C850.204 577.55 854.619 569.675 859.028 561.809C878.025 527.922 896.936 494.189 912.703 458.474C913.948 455.679 915.208 452.894 916.463 450.121C925.515 430.118 934.397 410.493 936.612 388.477C937.828 377.875 936.117 368.17 929.523 360.284C923.874 353.388 914.241 351.23 906.431 353.948C897.653 356.643 894.591 363.337 893.443 371.042C892.869 374.894 892.535 378.758 892.203 382.615C891.871 386.472 891.538 390.329 890.964 394.181C881.26 436.48 868.653 478.712 854.156 518.967C853.658 520.275 853.162 521.583 852.668 522.888C852.595 523.08 852.522 523.272 852.449 523.465L852.418 523.546L852.286 523.893L852.155 524.238L851.964 524.743L851.938 524.812L851.837 525.08L851.766 525.266L851.684 525.482C840.082 556.109 810.827 613 809.227 612.042C807.627 611.083 813.76 599.544 817.094 591.501C842.823 529.425 858.817 485.248 872.708 429.516C877.031 410.287 881.354 391.057 881.828 370.772C881.963 364.976 879.15 361.045 873.344 360.909C867.537 360.774 864.565 363.605 864.407 370.367C863.833 374.219 863.494 378.319 863.157 382.418L863.154 382.451L863.154 382.454C862.817 386.541 862.48 390.629 861.907 394.47C858.417 419.517 853.013 443.554 845.674 467.545C832.976 513.641 817.42 557.737 798.015 600.777C789.112 619.175 779.485 636.816 768.471 654.332C768.285 654.627 768.105 654.917 767.927 655.203C767.705 655.561 767.488 655.914 767.272 656.265C766.205 657.997 765.162 659.69 763.715 661.755C758.429 669.292 763.687 658.85 769.705 646.902C773.838 638.694 778.329 629.776 780.006 625.486C803.621 568.047 823.388 509.552 833.521 448.899C837.979 423.874 841.469 398.827 842.056 373.712C842.462 356.325 841.9 338.915 840.371 321.483C838.887 302.119 836.412 283.697 830.066 265.186C821.988 237.937 809.024 212.507 786.225 193.613L782.399 191.591L780.463 191.546ZM620.615 285.716C619.692 284.813 618.329 284.84 617.388 285.355C616.134 286.046 616.737 286.852 617.265 287.558L617.266 287.559C617.441 287.794 617.609 288.018 617.697 288.223C618.621 290.383 619.617 292.515 620.614 294.645L620.641 294.703C621.766 297.11 622.892 299.518 623.915 301.967C628.769 313.599 632.678 325.325 630.629 338.353C628.823 349.843 622.507 358.836 615.531 367.422C604.15 381.434 594.364 396.261 588.949 413.665C588.382 415.489 587.433 417.204 586.491 418.904L586.488 418.909C586.246 419.346 586.005 419.783 585.77 420.22C584.309 422.945 582.619 423.745 580.203 420.99C573.035 412.82 564.808 405.917 555.399 400.387C551.979 398.378 550.446 395.3 550.348 391.009C550.114 381.019 552.123 371.65 556.148 362.55C556.536 361.675 556.963 360.808 557.393 359.935C558.655 357.376 559.95 354.749 560.403 351.61L560.482 350.975C560.157 351.131 559.869 351.252 559.613 351.36C559.116 351.57 558.738 351.73 558.443 351.986C557.578 352.729 556.748 353.538 556.04 354.424C548.652 363.618 542.659 373.587 538.446 384.665C535.366 392.754 535.868 399.948 542.247 406.212C545.33 409.245 543.08 410.364 540.449 411.053C538.876 411.467 537.269 411.762 535.664 412.057L535.659 412.058C533.901 412.381 532.142 412.704 530.425 413.183C520.187 416.046 510.768 420.546 502.175 427.275C503.887 428.385 505.075 427.828 506.193 427.302C506.535 427.142 506.871 426.984 507.214 426.878L507.344 426.837C517.445 423.7 527.607 420.545 538.355 422.323C552.131 424.6 560.509 434.144 567.319 445.199C575.473 458.446 580.914 472.932 586.35 487.407L586.4 487.541C587.274 489.868 588.148 492.195 589.034 494.516C592.926 504.712 595.945 515.186 598.909 525.676L599.018 526.062C599.18 526.634 599.341 527.207 599.503 527.778C602.806 539.484 606.11 551.191 610.551 562.54C611.058 563.829 611.568 565.685 610.34 566.714C609.021 567.819 607.59 567.149 606.244 566.517C605.933 566.372 605.627 566.229 605.328 566.11C590.078 560.056 577.114 550.612 565.396 539.292C551.213 525.593 539.516 509.858 528 493.971C527.067 492.683 526.166 491.367 525.253 490.033L525.25 490.027L525.246 490.022L525.243 490.017L525.238 490.011L525.235 490.005C522.599 486.151 519.855 482.139 515.896 478.182C519.079 494.243 525.468 507.41 533.806 519.736C540.257 529.276 547.612 538.108 554.966 546.937L555.022 547.004C557.992 550.569 560.962 554.135 563.872 557.748L563.961 557.859C565.063 559.229 566.268 560.725 565.365 562.616C564.502 564.422 562.867 564.147 561.418 563.903L561.385 563.898C561.098 563.849 560.819 563.802 560.555 563.774C556.033 563.286 551.927 561.513 547.82 559.738L547.777 559.72L547.771 559.717C546.397 559.124 545.022 558.53 543.632 557.985C542.243 557.442 540.904 556.769 539.564 556.095L539.56 556.094C537.07 554.842 534.574 553.587 531.737 553.156L531.165 553.082C539.736 560.947 549.078 567.551 559.586 572.566C574.298 579.586 590.105 582.547 605.969 585.236C607.245 585.451 608.516 585.801 609.791 586.152L609.807 586.157C613.196 587.09 616.619 588.032 620.266 586.503C621.399 586.031 622.169 587.143 622.768 588.008L622.775 588.017C622.832 588.1 622.887 588.18 622.942 588.256C628.195 595.697 634.241 602.472 640.286 609.246L640.293 609.254L640.301 609.263C643.934 613.334 647.567 617.405 651.027 621.62C669.425 644.04 679.13 670.685 688.824 697.297L688.824 697.299C689.957 700.409 691.09 703.519 692.237 706.622C693.707 710.604 694.59 715.025 690.843 719.821C673.077 742.562 656.119 765.935 639.932 789.835C630.285 804.076 619.862 817.52 607.055 829.113C577.746 855.648 543.25 870.471 504.03 873.487C474.108 875.795 445.364 870.239 417.772 857.863C403.719 851.564 394.17 842.548 390.172 827.498C388.674 821.876 388.269 816.183 387.865 810.496L387.864 810.493L387.864 810.487C387.637 807.292 387.41 804.099 386.989 800.922C386.613 798.099 385.971 795.41 383.698 793.575C379.39 790.108 369.376 791.374 365.041 795.79C361.069 799.844 361.384 804.013 366.44 810.057C366.979 810.702 367.531 811.338 368.085 811.973C370.222 814.426 372.359 816.879 373.63 819.896C374.495 821.959 375.091 824.568 373.007 826.286C370.6 828.267 368.636 826.316 367.068 824.715C362.836 820.375 358.617 816.004 354.654 811.423C342.071 796.887 331.958 780.891 326.754 762.203C319.626 736.616 315.461 710.622 314.762 683.97C314.21 663.009 314.686 642.28 318.788 621.624C327.31 578.682 345.756 540.653 375.155 508.212C394.641 486.705 416.853 468.048 439.765 450.254C444.709 446.413 449.651 442.567 454.592 438.721L459.915 434.578C459.005 434.018 458.548 434.072 458.131 434.242C408.749 454.107 365.808 484.168 326.669 519.486C286.785 555.48 257.055 599.313 234.322 647.802C220.735 676.785 210.622 706.985 204.342 738.442C200.509 757.631 197.734 776.896 196.447 796.448C195.008 818.366 195.251 840.24 197.03 862.087C198.578 881.092 203.434 899.51 208.276 917.874L208.519 918.796C216.965 950.825 229.293 981.195 247.766 1008.92C268.056 1039.38 293.025 1065.56 320.451 1089.64C344.627 1110.85 370.936 1128.71 399.989 1142.59C426.07 1155.05 453.281 1163.8 482.262 1164.77C507.822 1165.62 531.089 1158 550.678 1140.88L550.954 1140.64C552.258 1139.49 553.617 1138.28 555.359 1139.18C556.76 1139.9 556.605 1141.28 556.453 1142.63L556.45 1142.65C556.412 1142.99 556.375 1143.32 556.362 1143.64C556.279 1145.93 556.178 1148.23 556.077 1150.52C555.795 1156.9 555.513 1163.27 555.628 1169.64C555.674 1172.22 555.446 1174.78 555.212 1177.42L555.21 1177.44C554.846 1181.54 554.467 1185.8 555.081 1190.5C555.596 1189.79 556.053 1189.17 556.459 1188.62L556.48 1188.59C557.22 1187.59 557.803 1186.8 558.318 1185.97C563.903 1176.99 569.485 1168.01 575.067 1159.02C591.218 1133.03 607.369 1107.03 623.61 1081.09C623.952 1080.55 624.231 1079.86 624.517 1079.16L624.518 1079.16L624.524 1079.15C625.39 1077.02 626.324 1074.74 629.253 1075.5C631.668 1076.14 631.898 1078.41 632.121 1080.63L632.122 1080.64L632.122 1080.64C632.204 1081.46 632.286 1082.27 632.476 1082.98C633.473 1086.71 634.355 1090.47 635.329 1094.62C635.509 1095.39 635.692 1096.17 635.879 1096.97C635.969 1097.35 636.059 1097.73 636.151 1098.12C636.246 1098.52 636.343 1098.93 636.442 1099.34L636.458 1099.41C636.518 1099.66 636.579 1099.92 636.641 1100.18C636.992 1099.39 637.275 1098.78 637.51 1098.27C637.909 1097.41 638.165 1096.85 638.362 1096.28C639.508 1092.94 640.654 1089.61 641.8 1086.27L642.25 1084.96C649.526 1063.78 656.801 1042.59 664.035 1021.39C664.212 1020.87 664.388 1020.35 664.564 1019.84L664.842 1019.02C665.068 1018.36 665.293 1017.69 665.518 1017.03L666.297 1014.74L666.311 1014.7C674.556 990.412 682.799 966.131 695.272 943.528C699.369 936.101 702.61 934.155 710.119 936.906C726.732 943 743.762 946.651 761.429 948.051C779.584 949.492 797.74 950.449 815.913 949.693C827.967 949.187 839.659 950.033 851.189 953.832C852.86 954.384 854.53 954.964 856.202 955.545L856.204 955.545L856.232 955.555L856.267 955.567C863.953 958.237 871.688 960.924 879.901 961.048C904.354 961.411 915.584 948.865 926.208 927.645C929.144 921.775 926.992 916.232 922.438 911.673C914.629 903.856 905.64 897.714 895.464 893.481C883.975 888.703 872.876 883.253 863.301 875.236C848.035 862.459 834.744 847.75 821.451 833.039L821.376 832.956C818.104 829.334 814.831 825.712 811.528 822.12C810.672 821.187 809.817 820.252 808.962 819.318L808.95 819.305C799.213 808.66 789.452 797.989 776.859 790.457C773.555 788.475 771.659 785.549 770.615 782.064C769.498 778.341 768.601 774.538 767.839 770.722C765.754 760.307 768.185 756.191 778.307 752.58C789.092 748.737 800.185 745.978 811.273 743.221L811.309 743.213L811.343 743.203L811.573 743.146C813.28 742.722 814.988 742.297 816.693 741.869C833.418 737.668 850.036 733.355 865.421 725.19C884.777 714.917 885.836 702.864 885.441 685.33C885.29 678.643 884.231 671.973 883.172 665.305L883.172 665.3L883.171 665.291L883.169 665.279C882.693 662.28 882.217 659.281 881.824 656.28C880.902 655.79 880.603 656.376 880.305 656.959L880.304 656.96C880.288 656.992 880.272 657.024 880.255 657.056C880.234 657.096 880.213 657.137 880.191 657.176C880.178 657.2 880.165 657.223 880.152 657.246C880.092 657.972 880.035 658.698 879.98 659.424C879.922 660.176 879.866 660.929 879.811 661.682L879.809 661.706L879.806 661.736L879.804 661.774C879.566 664.988 879.329 668.201 878.96 671.398C877.498 684.113 873.88 695.938 864.193 705.056C847.929 720.366 827.514 725.498 806.226 727.99C791.356 729.731 776.5 729.014 762.016 724.742C759.421 723.972 758.946 724.966 758.668 727.171C758.631 727.467 758.594 727.763 758.557 728.059C758.53 728.28 758.502 728.501 758.475 728.723C758.456 728.88 758.437 729.037 758.418 729.194L758.36 729.668L758.297 730.188C758.249 730.585 758.201 730.983 758.154 731.38L758.15 731.413L758.149 731.425L758.148 731.435L758.145 731.443L758.143 731.468C757.461 737.129 756.779 742.797 755.66 748.374C755.163 750.845 754.79 753.344 754.417 755.842L754.413 755.862L754.41 755.879C753.609 761.242 752.806 766.607 750.8 771.711C749.563 774.87 747.644 777.218 743.829 776.373C740.791 775.709 740.884 773.428 740.975 771.238C740.991 770.847 741.007 770.458 741.005 770.082C740.987 766.022 741.005 761.956 741.025 757.895C741.025 757.893 741.025 757.891 741.025 757.889C741.025 757.887 741.025 757.885 741.025 757.883C741.025 757.881 741.025 757.879 741.025 757.877C741.025 757.875 741.025 757.873 741.025 757.871C741.026 757.608 741.028 757.345 741.029 757.082V757.076V757.07V757.063V757.057V757.05V757.044L741.029 757.006C741.073 748.241 741.116 739.475 740.825 730.72C740.323 715.428 739.257 700.153 735.2 685.268C732.318 674.687 731.116 674.114 723.069 681.787C719.479 685.209 717.071 684.543 714.126 681.702C713.427 681.026 712.772 680.293 712.19 679.514C703.731 668.226 699.065 655.359 696.648 641.632C695.886 637.31 696.805 633.812 701.194 630.89C710.558 624.654 720.026 618.684 730.157 613.772C743.435 607.338 756.193 600.036 766.589 589.379C790.334 565.045 802.074 535.346 804.822 501.894C806.301 483.85 804.051 466.007 799.788 448.478C797.469 438.938 794.317 429.613 788.999 421.12L788.478 420.301C788.849 425.005 789.619 429.616 790.388 434.22L790.39 434.235L790.391 434.244C790.512 434.965 790.632 435.686 790.751 436.407C793.382 452.442 794.257 468.576 792.504 484.736C790.11 506.855 782.207 527.199 771.507 546.54C765.307 557.743 758.08 568.195 748.231 576.598C745.623 578.826 742.668 580.61 739.302 578.986C736.352 577.564 735.716 574.583 736.003 571.394C736.214 569.008 736.443 566.62 736.672 564.235L736.674 564.216C737.302 557.68 737.931 551.144 738.177 544.594C738.428 537.959 738.909 531.329 739.391 524.7C740.483 509.679 741.575 494.658 739.983 479.56C738.288 463.502 733.245 448.568 725.32 434.55C724.957 433.911 724.423 433.682 723.607 434C724.028 436.073 724.489 438.142 724.949 440.212L724.966 440.287C726.778 448.436 728.593 456.6 728.108 465.082C728.084 465.501 728.118 465.954 728.152 466.407C728.267 467.919 728.385 469.477 726.382 470.141C723.935 470.951 722.361 469.274 721.021 467.596C717.597 463.313 714.195 459.011 710.794 454.709L710.79 454.703L710.62 454.489L710.603 454.467L710.585 454.445C708.383 451.659 706.181 448.874 703.973 446.093C690.273 428.833 675.422 412.852 655.303 402.785C655.01 402.638 654.721 402.46 654.428 402.28L654.427 402.279C653.257 401.559 652.024 400.799 650.25 401.822C652.092 403.861 653.938 405.888 655.774 407.905L655.781 407.912L655.802 407.935L656.116 408.281C660.368 412.951 664.59 417.589 668.729 422.301C679.833 434.931 690.793 447.682 699.705 462.021C708.953 476.901 716.847 492.4 719.138 509.997C721.738 529.933 720.403 549.721 715.31 569.228C710.881 586.203 703.65 601.271 688.153 611.155C685.423 612.895 683.804 613.047 681.532 610.663L681.22 610.336L681.213 610.328L681.211 610.326L681.208 610.324C677.244 606.171 673.243 601.979 668.783 598.39C655.68 587.84 645.754 574.919 638.797 559.708C622.511 524.121 611.089 487.156 605.781 448.259C603.455 431.231 606.741 415.881 614.303 400.785C617.365 394.669 620.926 388.847 624.482 383.033C627.698 377.776 630.913 372.52 633.758 367.046C641.11 352.904 644.961 338.054 641.115 322.305C638.331 310.888 632.741 300.512 625.699 291.032C624.56 289.499 623.149 288.149 621.748 286.809C621.368 286.446 620.989 286.082 620.615 285.716ZM654.494 680.577C646.371 677.807 639.517 682.451 639.369 690.898C639.279 696.043 641.135 700.508 644.568 704.141C652.969 713.017 659.349 722.74 659.165 735.714C666.544 723.934 671.668 711.755 667.853 697.868C665.822 690.473 662.8 683.413 654.494 680.577ZM486.25 482.544C489.038 473.153 493.84 465.108 500.362 457.757C492.62 459.46 485.884 463.082 479.19 466.683L479.184 466.686C478.877 466.851 478.57 467.016 478.263 467.181L478.007 467.318C465.746 473.895 455.951 483.08 450.226 495.957C444.851 508.05 442.265 520.399 448.891 532.984C453.105 540.992 461.277 543.896 469.987 541.556C482.193 538.286 486.605 521.611 485.116 511.526C483.695 501.912 483.386 492.19 486.25 482.544ZM983.668 1081.23C983.812 1076.94 982.431 1076.3 978.522 1076.31C935.963 1076.46 893.398 1076.46 850.834 1076.31C847.001 1076.3 845.966 1077.27 845.988 1081.1C846.11 1102.36 846.096 1123.62 846.082 1144.88L846.082 1145.17C846.077 1152.03 846.073 1158.88 846.073 1165.73C846.073 1172.54 846.078 1179.35 846.084 1186.16V1186.19C846.101 1207.91 846.118 1229.63 845.961 1251.34C845.93 1255.4 847.346 1256.03 850.749 1255.5C866.752 1253.05 881.528 1247.32 895.223 1238.83C923.922 1221.03 944.636 1196.03 959.99 1166.38C973.81 1139.67 982.678 1111.56 983.668 1081.23ZM801.058 1076.34C768.58 1076.43 736.098 1076.49 703.617 1076.35L689.695 1076.27C684.957 1076.25 684.262 1077.76 684.271 1081.97C684.401 1137.54 684.411 1193.11 684.258 1248.69C684.245 1252.85 685.356 1253.75 689.399 1253.73C733.747 1253.58 778.097 1253.55 822.445 1253.77C827.326 1253.8 828.11 1252.13 827.716 1248.01C825.228 1222.06 815.443 1199.44 797.368 1180.43C787.268 1169.8 775.716 1161.17 762.281 1153.9C763.535 1152.9 764.749 1151.96 765.922 1151.06L765.926 1151.05C768.366 1149.17 770.632 1147.42 772.726 1145.49C791.818 1127.89 800.725 1105.23 805.002 1080.29C805.548 1077.09 804.306 1076.41 801.615 1076.35L801.058 1076.34ZM1098.03 1078C1098.16 1074.72 1096.98 1074.24 1094.05 1074.69C1065.92 1078.97 1042.57 1092.61 1022.56 1112.04C995.678 1138.13 978.069 1169.85 967.718 1205.71C963.644 1219.83 961.165 1234.2 960.551 1248.87C960.545 1249.02 960.53 1249.17 960.511 1249.33C960.494 1249.46 960.473 1249.6 960.45 1249.74L960.428 1249.88L960.41 1249.99L960.408 1250C960.126 1251.73 959.802 1253.71 963.213 1253.68C975.039 1253.56 986.864 1253.58 998.685 1253.69C1000.93 1253.7 1001.09 1252.77 1001.41 1250.89L1001.42 1250.85C1002 1247.5 1002.24 1244.12 1002.48 1240.74C1002.77 1236.66 1003.06 1232.59 1003.94 1228.56C1004.55 1225.72 1005.31 1224.81 1008.21 1224.84L1013.87 1224.88C1027.1 1224.97 1040.32 1224.95 1053.54 1224.84C1056.29 1224.82 1057.23 1225.55 1057.19 1228.42C1057.15 1231.59 1057.23 1234.78 1057.31 1237.96V1237.96C1057.41 1241.83 1057.51 1245.69 1057.38 1249.54C1057.27 1253.13 1058.46 1253.79 1061.78 1253.72C1072.28 1253.5 1082.81 1253.43 1093.31 1253.74C1097.28 1253.86 1098.05 1252.62 1098.03 1248.89C1097.93 1208.68 1097.94 1168.47 1097.95 1128.26V1127.6C1097.95 1116.97 1097.95 1106.33 1097.95 1095.7C1097.95 1093.97 1097.94 1092.23 1097.92 1090.5C1097.89 1086.33 1097.85 1082.16 1098.03 1078ZM746.246 827.052C751.266 819.437 757.186 814.743 765.896 814.946L766.864 814.968C779.469 814.295 793.67 828.157 787.457 845.409C787.441 845.464 786.378 849.249 783.496 849.182C781.568 849.137 780.689 845.282 780.682 845.251C777.172 829.705 761.799 824.515 750.027 831.006C750.023 831.01 747.055 833.835 745.166 831.86C744.245 829.91 746.237 827.065 746.246 827.052ZM728.992 1109.48C727.057 1109.44 726.088 1109.41 726.043 1111.35C725.93 1116.18 726.065 1120.77 726.2 1125.36C726.334 1129.96 726.469 1134.55 726.356 1139.38C738.038 1136.75 750.959 1122.56 752.198 1110.99C752.238 1109.3 752.242 1109.09 750.946 1109.03L750.307 1109.01L728.992 1109.48ZM726.412 1178.46C726.48 1175.57 726.502 1174.6 728.437 1174.65L730.351 1175.66C750.562 1180.96 763.796 1194.8 773.991 1214.37C766.391 1214.66 759.022 1214.73 751.779 1214.8H751.777H751.775H751.773L751.715 1214.8C744.202 1214.87 736.816 1214.94 729.425 1215.26C726.522 1215.19 725.599 1213.24 725.644 1211.31L726.412 1178.46V1178.46ZM891.532 1115.77C888.629 1115.7 887.638 1116.64 887.57 1119.54C888.289 1130.19 888.019 1141.78 887.771 1152.41L887.771 1152.41C887.522 1163.03 887.274 1173.66 887.993 1184.31C887.98 1184.34 886.97 1187.19 888.871 1188.19L892.788 1186.35C899.675 1181.68 905.618 1176.02 910.615 1169.37C922.568 1155.15 928.759 1138.86 933.059 1120.6C934.095 1117.73 934.117 1116.76 930.246 1116.67L891.532 1115.77ZM1053.78 1134.71C1053.8 1134.71 1054.76 1134.72 1055.74 1133.79C1056.57 1139.6 1057.38 1146.39 1057.22 1153.15C1056.93 1165.71 1056.63 1178.27 1057.28 1191.81C1057.19 1195.67 1056.2 1196.62 1052.33 1196.53C1040.72 1196.26 1029.1 1195.99 1017.47 1196.68C1014.56 1196.62 1013.62 1195.63 1014.65 1192.75C1023.88 1170.74 1035.97 1150.72 1053.78 1134.71Z" fill="#FCD02F"/>
<path fill-rule="evenodd" clip-rule="evenodd" d="M765.896 814.946C757.186 814.743 751.266 819.437 746.246 827.052C746.237 827.065 744.245 829.91 745.166 831.86C747.055 833.835 750.023 831.01 750.027 831.006C761.799 824.515 777.172 829.705 780.682 845.251C780.689 845.282 781.568 849.137 783.496 849.182C786.378 849.249 787.441 845.464 787.457 845.409C793.67 828.157 779.469 814.295 766.864 814.968L765.896 814.946ZM741.029 757.089L741.025 757.871V757.877V757.883V757.889V757.895C741.005 761.956 740.987 766.022 741.005 770.082C741.007 770.458 740.991 770.847 740.975 771.238C740.884 773.428 740.791 775.709 743.829 776.373C747.644 777.218 749.563 774.87 750.8 771.711C752.806 766.607 753.609 761.242 754.41 755.879L754.413 755.862L754.417 755.842C754.79 753.344 755.163 750.845 755.66 748.374C756.779 742.797 757.461 737.129 758.143 731.468L758.145 731.443L758.148 731.435L758.149 731.425L758.15 731.413L758.154 731.38C758.201 730.983 758.249 730.585 758.297 730.188L758.36 729.668L758.418 729.194C758.437 729.037 758.456 728.88 758.475 728.723C758.502 728.501 758.53 728.28 758.557 728.059C758.594 727.763 758.631 727.467 758.668 727.171C758.946 724.966 759.421 723.972 762.016 724.742C776.5 729.014 791.356 729.731 806.226 727.99C827.514 725.498 847.929 720.366 864.193 705.056C873.88 695.938 877.498 684.113 878.96 671.398C879.329 668.201 879.566 664.988 879.804 661.774L879.806 661.736L879.809 661.706L879.811 661.682C879.866 660.929 879.922 660.176 879.98 659.424C880.035 658.698 880.092 657.972 880.152 657.246C880.165 657.223 880.178 657.2 880.191 657.176C880.213 657.137 880.234 657.096 880.255 657.056C880.272 657.024 880.288 656.992 880.304 656.96L880.305 656.959C880.603 656.376 880.902 655.79 881.824 656.28C882.217 659.281 882.693 662.28 883.169 665.279L883.171 665.291L883.172 665.3L883.172 665.305C884.231 671.973 885.29 678.643 885.441 685.33C885.836 702.864 884.777 714.917 865.421 725.19C850.036 733.355 833.418 737.668 816.693 741.869C814.988 742.297 813.28 742.722 811.573 743.146L811.343 743.203L811.309 743.213L811.273 743.221C800.185 745.978 789.092 748.737 778.307 752.58C768.185 756.191 765.754 760.307 767.839 770.722C768.601 774.538 769.498 778.341 770.615 782.064C771.659 785.549 773.555 788.475 776.859 790.457C789.452 797.989 799.213 808.66 808.95 819.305L808.962 819.318C809.817 820.252 810.672 821.187 811.528 822.12C814.831 825.712 818.104 829.334 821.376 832.956L821.451 833.039C834.744 847.75 848.035 862.459 863.301 875.236C872.876 883.253 883.975 888.703 895.464 893.481C905.64 897.714 914.629 903.856 922.438 911.673C926.992 916.232 929.144 921.775 926.208 927.645C915.584 948.865 904.354 961.411 879.901 961.048C871.688 960.924 863.953 958.237 856.267 955.567L856.232 955.555L856.204 955.545L856.202 955.545C854.53 954.964 852.86 954.384 851.189 953.832C839.659 950.033 827.967 949.187 815.913 949.693C797.74 950.449 779.584 949.492 761.429 948.051C743.762 946.651 726.732 943 710.119 936.906C702.61 934.155 699.369 936.101 695.272 943.528C682.799 966.131 674.556 990.412 666.311 1014.7L666.297 1014.74L665.518 1017.03C665.293 1017.69 665.068 1018.36 664.842 1019.02L664.564 1019.84C664.388 1020.35 664.212 1020.87 664.035 1021.39C656.801 1042.59 649.526 1063.78 642.25 1084.96L641.8 1086.27C640.654 1089.61 639.508 1092.94 638.362 1096.28C638.165 1096.85 637.909 1097.41 637.51 1098.27C637.275 1098.78 636.992 1099.39 636.641 1100.18C636.579 1099.92 636.518 1099.66 636.458 1099.41L636.442 1099.34C636.343 1098.93 636.246 1098.52 636.151 1098.12C636.059 1097.73 635.969 1097.35 635.879 1096.97C635.692 1096.17 635.509 1095.39 635.329 1094.62C634.355 1090.47 633.473 1086.71 632.476 1082.98C632.286 1082.27 632.204 1081.46 632.122 1080.64L632.122 1080.64L632.121 1080.63C631.898 1078.41 631.668 1076.14 629.253 1075.5C626.324 1074.74 625.39 1077.02 624.524 1079.15L624.518 1079.16L624.517 1079.16C624.231 1079.86 623.952 1080.55 623.61 1081.09C607.369 1107.03 591.218 1133.03 575.067 1159.02C569.485 1168.01 563.903 1176.99 558.318 1185.97C557.803 1186.8 557.22 1187.59 556.48 1188.59L556.459 1188.62C556.053 1189.17 555.596 1189.79 555.081 1190.5C554.467 1185.8 554.846 1181.54 555.21 1177.44L555.212 1177.42C555.446 1174.78 555.674 1172.22 555.628 1169.64C555.513 1163.27 555.795 1156.9 556.077 1150.52C556.178 1148.23 556.279 1145.93 556.362 1143.64C556.375 1143.32 556.412 1142.99 556.45 1142.65L556.453 1142.63C556.605 1141.28 556.76 1139.9 555.359 1139.18C553.617 1138.28 552.258 1139.49 550.954 1140.64L550.678 1140.88C531.089 1158 507.822 1165.62 482.262 1164.77C453.281 1163.8 426.07 1155.05 399.989 1142.59C370.936 1128.71 344.627 1110.85 320.451 1089.64C293.025 1065.56 268.056 1039.38 247.766 1008.92C229.293 981.195 216.965 950.825 208.519 918.796L208.276 917.874C203.434 899.51 198.578 881.092 197.03 862.087C195.251 840.24 195.008 818.366 196.447 796.448C197.734 776.896 200.509 757.631 204.342 738.442C210.622 706.985 220.735 676.785 234.322 647.802C257.055 599.313 286.785 555.48 326.669 519.486C365.808 484.168 408.749 454.107 458.131 434.242C458.548 434.072 459.005 434.018 459.915 434.578L454.592 438.721C449.651 442.567 444.709 446.413 439.765 450.254C416.853 468.048 394.641 486.705 375.155 508.212C345.756 540.653 327.31 578.682 318.788 621.624C314.686 642.28 314.21 663.009 314.762 683.97C315.461 710.622 319.626 736.616 326.754 762.203C331.958 780.891 342.071 796.887 354.654 811.423C358.617 816.004 362.836 820.375 367.068 824.715C368.636 826.316 370.6 828.267 373.007 826.286C375.091 824.568 374.495 821.959 373.63 819.896C372.359 816.879 370.222 814.426 368.085 811.973C367.531 811.338 366.979 810.702 366.44 810.057C361.384 804.013 361.069 799.844 365.041 795.79C369.376 791.374 379.39 790.108 383.698 793.575C385.971 795.41 386.613 798.099 386.989 800.922C387.41 804.099 387.637 807.292 387.864 810.487L387.864 810.493L387.865 810.496C388.269 816.183 388.674 821.876 390.172 827.498C394.17 842.548 403.719 851.564 417.772 857.863C445.364 870.239 474.108 875.795 504.03 873.487C543.25 870.471 577.746 855.648 607.055 829.113C619.862 817.52 630.285 804.076 639.932 789.835C656.119 765.935 673.077 742.562 690.843 719.821C694.59 715.025 693.707 710.604 692.237 706.622C691.09 703.519 689.957 700.409 688.824 697.299L688.824 697.297C679.13 670.685 669.425 644.04 651.027 621.62C647.567 617.405 643.934 613.334 640.301 609.263L640.293 609.254L640.286 609.246C634.241 602.472 628.195 595.697 622.942 588.256C622.887 588.18 622.832 588.1 622.775 588.017L622.768 588.008C622.169 587.143 621.399 586.031 620.266 586.503C616.619 588.032 613.196 587.09 609.807 586.157L609.791 586.152C608.516 585.801 607.245 585.451 605.969 585.236C590.105 582.547 574.298 579.586 559.586 572.566C549.078 567.551 539.736 560.947 531.165 553.082L531.737 553.156C534.574 553.587 537.07 554.842 539.56 556.094L539.564 556.095C540.904 556.769 542.243 557.442 543.632 557.985C545.022 558.53 546.397 559.124 547.771 559.717L547.777 559.72L547.82 559.738C551.927 561.513 556.033 563.286 560.555 563.774C560.819 563.802 561.098 563.849 561.385 563.898L561.418 563.903C562.867 564.147 564.502 564.422 565.365 562.616C566.268 560.725 565.063 559.229 563.961 557.859L563.872 557.748C560.962 554.135 557.992 550.569 555.022 547.004L554.966 546.937C547.612 538.108 540.257 529.276 533.806 519.736C525.468 507.41 519.079 494.243 515.896 478.182C519.855 482.139 522.599 486.151 525.235 490.005L525.238 490.011L525.243 490.017L525.246 490.022L525.25 490.027L525.253 490.033C526.166 491.367 527.067 492.683 528 493.971C539.516 509.858 551.213 525.593 565.396 539.292C577.114 550.612 590.078 560.056 605.328 566.11C605.627 566.229 605.933 566.372 606.244 566.517C607.59 567.149 609.021 567.819 610.34 566.714C611.568 565.685 611.058 563.829 610.551 562.54C606.11 551.191 602.806 539.484 599.503 527.778C599.341 527.207 599.18 526.634 599.018 526.062L598.909 525.676C595.945 515.186 592.926 504.712 589.034 494.516C588.148 492.195 587.274 489.868 586.4 487.541L586.35 487.407C580.914 472.932 575.473 458.446 567.319 445.199C560.509 434.144 552.131 424.6 538.355 422.323C527.607 420.545 517.445 423.7 507.344 426.837L507.214 426.878C506.871 426.984 506.535 427.142 506.193 427.302C505.075 427.828 503.887 428.385 502.175 427.275C510.768 420.546 520.187 416.046 530.425 413.183C532.142 412.704 533.901 412.381 535.659 412.058L535.664 412.057C537.269 411.762 538.876 411.467 540.449 411.053C543.08 410.364 545.33 409.245 542.247 406.212C535.868 399.948 535.366 392.754 538.446 384.665C542.659 373.587 548.652 363.618 556.04 354.424C556.748 353.538 557.578 352.729 558.443 351.986C558.738 351.73 559.116 351.57 559.613 351.36C559.869 351.252 560.157 351.131 560.482 350.975L560.403 351.61C559.95 354.749 558.655 357.376 557.393 359.935C556.963 360.808 556.536 361.675 556.148 362.55C552.123 371.65 550.114 381.019 550.348 391.009C550.446 395.3 551.979 398.378 555.399 400.387C564.808 405.917 573.035 412.82 580.203 420.99C582.619 423.745 584.309 422.945 585.77 420.22C586.005 419.783 586.246 419.346 586.488 418.909L586.491 418.904C587.433 417.204 588.382 415.489 588.949 413.665C594.364 396.261 604.15 381.434 615.531 367.422C622.507 358.836 628.823 349.843 630.629 338.353C632.678 325.325 628.769 313.599 623.915 301.967C622.892 299.518 621.766 297.11 620.641 294.703L620.614 294.645C619.617 292.515 618.621 290.383 617.697 288.223C617.609 288.018 617.441 287.794 617.266 287.559L617.265 287.558C616.737 286.852 616.134 286.046 617.388 285.355C618.329 284.84 619.692 284.813 620.615 285.716C620.989 286.082 621.368 286.446 621.748 286.809C623.149 288.149 624.56 289.499 625.699 291.032C632.741 300.512 638.331 310.888 641.115 322.305C644.961 338.054 641.11 352.904 633.758 367.046C630.913 372.52 627.698 377.776 624.482 383.033C620.926 388.847 617.365 394.669 614.303 400.785C606.741 415.881 603.455 431.231 605.781 448.259C611.089 487.156 622.511 524.121 638.797 559.708C645.754 574.919 655.68 587.84 668.783 598.39C673.243 601.979 677.244 606.171 681.208 610.324L681.211 610.326L681.213 610.328L681.22 610.336L681.532 610.663C683.804 613.047 685.423 612.895 688.153 611.155C703.65 601.271 710.881 586.203 715.31 569.228C720.403 549.721 721.738 529.933 719.138 509.997C716.847 492.4 708.953 476.901 699.705 462.021C690.793 447.682 679.833 434.931 668.729 422.301C664.59 417.589 660.368 412.951 656.116 408.281L655.802 407.935L655.781 407.912L655.774 407.905C653.938 405.888 652.092 403.861 650.25 401.822C652.024 400.799 653.257 401.559 654.427 402.279L654.428 402.28C654.721 402.46 655.01 402.638 655.303 402.785C675.422 412.852 690.273 428.833 703.973 446.093C706.181 448.874 708.383 451.659 710.585 454.445L710.603 454.467L710.62 454.489L710.79 454.703L710.794 454.709C714.195 459.011 717.597 463.313 721.021 467.596C722.361 469.274 723.935 470.951 726.382 470.141C728.385 469.477 728.267 467.919 728.152 466.407C728.118 465.954 728.084 465.501 728.108 465.082C728.593 456.6 726.778 448.436 724.966 440.287L724.949 440.212C724.489 438.142 724.028 436.073 723.607 434C724.423 433.682 724.957 433.911 725.32 434.55C733.245 448.568 738.288 463.502 739.983 479.56C741.575 494.658 740.483 509.679 739.391 524.7C738.909 531.329 738.428 537.959 738.177 544.594C737.931 551.144 737.302 557.68 736.674 564.216L736.672 564.235C736.443 566.62 736.214 569.008 736.003 571.394C735.716 574.583 736.352 577.564 739.302 578.986C742.668 580.61 745.623 578.826 748.231 576.598C758.08 568.195 765.307 557.743 771.507 546.54C782.207 527.199 790.11 506.855 792.504 484.736C794.257 468.576 793.382 452.442 790.751 436.407C790.632 435.686 790.512 434.965 790.391 434.244L790.39 434.235L790.388 434.22C789.619 429.616 788.849 425.005 788.478 420.301L788.999 421.12C794.317 429.613 797.469 438.938 799.788 448.478C804.051 466.007 806.301 483.85 804.822 501.894C802.074 535.346 790.334 565.045 766.589 589.379C756.193 600.036 743.435 607.338 730.157 613.772C720.026 618.684 710.558 624.654 701.194 630.89C696.805 633.812 695.886 637.31 696.648 641.632C699.065 655.359 703.731 668.226 712.19 679.514C712.772 680.293 713.427 681.026 714.126 681.702C717.071 684.543 719.479 685.209 723.069 681.787C731.116 674.114 732.318 674.687 735.2 685.268C739.257 700.153 740.323 715.428 740.825 730.72C741.116 739.475 741.073 748.241 741.029 757.006L741.029 757.044V757.05V757.057" fill="#FCD02F"/>
<path d="M1513.83 520.781H1572.9C1583.3 520.781 1593.01 522.187 1602.01 525C1611.01 527.812 1618.27 532.5 1623.81 539.062C1629.43 545.625 1632.24 554.578 1632.24 565.922C1632.24 573.516 1630.79 580.312 1627.88 586.312C1624.98 592.312 1621.27 597.234 1616.77 601.078C1612.27 604.828 1607.54 607.219 1602.57 608.25C1606.79 608.719 1611.1 609.984 1615.51 612.047C1619.92 614.109 1623.99 616.969 1627.74 620.625C1631.49 624.281 1634.49 628.875 1636.74 634.406C1639.09 639.937 1640.26 646.406 1640.26 653.813C1640.26 664.125 1638.01 673.266 1633.51 681.234C1629.1 689.109 1622.54 695.297 1613.82 699.797C1605.2 704.203 1594.46 706.406 1581.62 706.406H1513.83V520.781ZM1548.99 678H1574.44C1581.57 678 1587.24 676.828 1591.46 674.484C1595.77 672.141 1598.87 668.953 1600.74 664.922C1602.62 660.891 1603.56 656.297 1603.56 651.141C1603.56 642.891 1600.93 636.562 1595.68 632.156C1590.43 627.75 1582.98 625.547 1573.32 625.547H1548.99V678ZM1548.99 597.703H1571.35C1577.16 597.703 1581.94 596.578 1585.7 594.328C1589.54 591.984 1592.45 588.891 1594.41 585.047C1596.38 581.109 1597.37 576.844 1597.37 572.25C1597.37 563.437 1594.79 557.391 1589.63 554.109C1584.57 550.828 1577.68 549.188 1568.96 549.188H1548.99V597.703Z" fill="#FCD02F"/>
<path d="M1701.1 646.219C1701.1 656.531 1703.17 664.781 1707.29 670.969C1711.42 677.063 1718.07 680.109 1727.26 680.109C1736.54 680.109 1743.25 677.063 1747.37 670.969C1751.5 664.781 1753.56 656.531 1753.56 646.219V590.953H1788.72V650.297C1788.72 662.203 1786.33 672.656 1781.54 681.656C1776.76 690.562 1769.78 697.5 1760.59 702.469C1751.5 707.344 1740.39 709.781 1727.26 709.781C1714.23 709.781 1703.12 707.344 1693.93 702.469C1684.84 697.5 1677.9 690.562 1673.12 681.656C1668.34 672.656 1665.95 662.203 1665.95 650.297V590.953H1701.1V646.219Z" fill="#FCD02F"/>
<path d="M1850.93 706.406H1815.21V590.953H1850.93V609.656H1850.22C1850.88 607.406 1852.66 604.547 1855.57 601.078C1858.57 597.609 1862.69 594.516 1867.94 591.797C1873.19 588.984 1879.52 587.578 1886.93 587.578C1892.27 587.578 1897.1 588.375 1901.41 589.969C1905.82 591.469 1908.96 592.969 1910.83 594.469L1896.77 623.719C1895.55 622.219 1893.25 620.672 1889.88 619.078C1886.6 617.484 1882.47 616.687 1877.5 616.687C1871.6 616.687 1866.68 618.328 1862.74 621.609C1858.8 624.797 1855.85 628.734 1853.88 633.422C1851.91 638.016 1850.93 642.328 1850.93 646.359V706.406Z" fill="#FCD02F"/>
<path d="M1948 656.625C1948.28 661.875 1949.69 666.562 1952.22 670.687C1954.75 674.812 1958.41 678.047 1963.19 680.391C1968.06 682.734 1973.88 683.906 1980.63 683.906C1986.72 683.906 1992.06 683.156 1996.66 681.656C2001.34 680.156 2005.28 678.328 2008.47 676.172C2011.75 673.922 2014.19 671.766 2015.78 669.703L2030.55 691.641C2027.92 694.922 2024.41 697.969 2020 700.781C2015.69 703.5 2010.16 705.656 2003.41 707.25C1996.75 708.937 1988.41 709.781 1978.38 709.781C1965.72 709.781 1954.61 707.297 1945.05 702.328C1935.48 697.359 1928.03 690.188 1922.69 680.813C1917.34 671.438 1914.67 660.281 1914.67 647.344C1914.67 636.094 1917.06 625.969 1921.84 616.969C1926.62 607.875 1933.56 600.703 1942.66 595.453C1951.84 590.203 1962.86 587.578 1975.7 587.578C1987.8 587.578 1998.25 589.922 2007.06 594.609C2015.97 599.203 2022.86 605.953 2027.74 614.859C2032.61 623.766 2035.05 634.641 2035.05 647.484C2035.05 648.234 2035 649.781 2034.91 652.125C2034.91 654.375 2034.81 655.875 2034.63 656.625H1948ZM2001.58 634.547C2001.49 631.547 2000.55 628.312 1998.77 624.844C1997.08 621.375 1994.41 618.422 1990.75 615.984C1987.09 613.547 1982.22 612.328 1976.13 612.328C1970.03 612.328 1965.02 613.5 1961.08 615.844C1957.23 618.187 1954.33 621.094 1952.36 624.562C1950.39 627.937 1949.26 631.266 1948.98 634.547H2001.58Z" fill="#FCD02F"/>
<path d="M2149.88 706.406V686.297C2149.03 688.359 2146.88 691.266 2143.41 695.016C2139.94 698.766 2135.25 702.187 2129.34 705.281C2123.53 708.281 2116.69 709.781 2108.81 709.781C2097.75 709.781 2087.95 707.156 2079.42 701.906C2070.89 696.563 2064.19 689.297 2059.31 680.109C2054.53 670.828 2052.14 660.375 2052.14 648.75C2052.14 637.125 2054.53 626.719 2059.31 617.531C2064.19 608.25 2070.89 600.938 2079.42 595.594C2087.95 590.25 2097.75 587.578 2108.81 587.578C2116.5 587.578 2123.16 588.891 2128.78 591.516C2134.5 594.047 2139.09 597.047 2142.56 600.516C2146.13 603.891 2148.42 606.937 2149.45 609.656V590.953H2184.89V706.406H2149.88ZM2087.15 648.75C2087.15 655.219 2088.61 660.937 2091.51 665.906C2094.42 670.781 2098.26 674.578 2103.05 677.297C2107.83 680.016 2113.03 681.375 2118.66 681.375C2124.56 681.375 2129.81 680.016 2134.41 677.297C2139 674.484 2142.61 670.641 2145.23 665.766C2147.95 660.797 2149.31 655.125 2149.31 648.75C2149.31 642.375 2147.95 636.75 2145.23 631.875C2142.61 626.906 2139 623.016 2134.41 620.203C2129.81 617.391 2124.56 615.984 2118.66 615.984C2113.03 615.984 2107.83 617.391 2103.05 620.203C2098.26 622.922 2094.42 626.766 2091.51 631.734C2088.61 636.609 2087.15 642.281 2087.15 648.75Z" fill="#FCD02F"/>
<path d="M2247.97 646.219C2247.97 656.531 2250.03 664.781 2254.15 670.969C2258.28 677.063 2264.94 680.109 2274.12 680.109C2283.41 680.109 2290.11 677.063 2294.23 670.969C2298.36 664.781 2300.42 656.531 2300.42 646.219V590.953H2335.58V650.297C2335.58 662.203 2333.19 672.656 2328.41 681.656C2323.63 690.562 2316.64 697.5 2307.45 702.469C2298.36 707.344 2287.25 709.781 2274.12 709.781C2261.09 709.781 2249.98 707.344 2240.79 702.469C2231.7 697.5 2224.76 690.562 2219.98 681.656C2215.2 672.656 2212.81 662.203 2212.81 650.297V590.953H2247.97V646.219Z" fill="#FCD02F"/>
<path d="M2437.53 520.781H2488.72C2508.5 520.781 2524.81 524.766 2537.66 532.734C2550.59 540.609 2560.25 551.531 2566.63 565.5C2573 579.469 2576.19 595.453 2576.19 613.453C2576.19 631.547 2573 647.578 2566.63 661.547C2560.25 675.516 2550.59 686.484 2537.66 694.453C2524.81 702.422 2508.5 706.406 2488.72 706.406H2437.53V520.781ZM2472.4 552.141V675.047H2485.62C2497.72 675.047 2507.65 672.422 2515.44 667.172C2523.31 661.828 2529.17 654.516 2533.01 645.234C2536.95 635.953 2538.92 625.453 2538.92 613.734C2539.02 601.922 2537.14 591.375 2533.3 582.094C2529.45 572.813 2523.55 565.5 2515.58 560.156C2507.7 554.813 2497.72 552.141 2485.62 552.141H2472.4Z" fill="#FCD02F"/>
<path d="M2629.45 656.625C2629.73 661.875 2631.14 666.562 2633.67 670.687C2636.2 674.812 2639.86 678.047 2644.64 680.391C2649.51 682.734 2655.33 683.906 2662.08 683.906C2668.17 683.906 2673.51 683.156 2678.11 681.656C2682.8 680.156 2686.73 678.328 2689.92 676.172C2693.2 673.922 2695.64 671.766 2697.23 669.703L2712 691.641C2709.37 694.922 2705.86 697.969 2701.45 700.781C2697.14 703.5 2691.61 705.656 2684.86 707.25C2678.2 708.937 2669.86 709.781 2659.83 709.781C2647.17 709.781 2636.06 707.297 2626.5 702.328C2616.93 697.359 2609.48 690.188 2604.14 680.813C2598.79 671.438 2596.12 660.281 2596.12 647.344C2596.12 636.094 2598.51 625.969 2603.29 616.969C2608.07 607.875 2615.01 600.703 2624.11 595.453C2633.29 590.203 2644.31 587.578 2657.15 587.578C2669.25 587.578 2679.7 589.922 2688.51 594.609C2697.42 599.203 2704.31 605.953 2709.19 614.859C2714.06 623.766 2716.5 634.641 2716.5 647.484C2716.5 648.234 2716.45 649.781 2716.36 652.125C2716.36 654.375 2716.26 655.875 2716.08 656.625H2629.45ZM2683.03 634.547C2682.94 631.547 2682 628.312 2680.22 624.844C2678.53 621.375 2675.86 618.422 2672.2 615.984C2668.54 613.547 2663.67 612.328 2657.58 612.328C2651.48 612.328 2646.47 613.5 2642.53 615.844C2638.68 618.187 2635.78 621.094 2633.81 624.562C2631.84 627.937 2630.72 631.266 2630.43 634.547H2683.03Z" fill="#FCD02F"/>
<path d="M2789 587.578C2795.93 587.578 2802.36 588.234 2808.26 589.547C2814.17 590.766 2819.14 592.172 2823.17 593.766C2827.29 595.359 2830.01 596.719 2831.33 597.844L2819.09 619.359C2817.22 617.859 2813.84 616.078 2808.97 614.016C2804.18 611.953 2798.84 610.922 2792.93 610.922C2787.59 610.922 2783.09 611.859 2779.43 613.734C2775.78 615.516 2773.95 618.234 2773.95 621.891C2773.95 625.547 2775.92 628.453 2779.86 630.609C2783.79 632.766 2789.28 634.641 2796.31 636.234C2802.22 637.453 2808.03 639.328 2813.75 641.859C2819.47 644.297 2824.2 647.859 2827.95 652.547C2831.7 657.141 2833.58 663.281 2833.58 670.969C2833.58 678.563 2831.94 684.891 2828.65 689.953C2825.47 694.922 2821.2 698.859 2815.86 701.766C2810.51 704.672 2804.65 706.734 2798.28 707.953C2791.9 709.172 2785.57 709.781 2779.29 709.781C2771.14 709.781 2763.96 708.984 2757.78 707.391C2751.59 705.891 2746.48 704.156 2742.45 702.188C2738.51 700.125 2735.7 698.391 2734.01 696.984L2746.24 673.078C2748.68 675.234 2752.67 677.625 2758.2 680.25C2763.82 682.781 2769.87 684.047 2776.34 684.047C2783.09 684.047 2788.39 682.875 2792.23 680.531C2796.17 678.187 2798.14 675.047 2798.14 671.109C2798.14 668.203 2797.2 665.859 2795.32 664.078C2793.45 662.203 2790.87 660.656 2787.59 659.437C2784.31 658.219 2780.46 657.141 2776.06 656.203C2772.03 655.359 2767.9 654.141 2763.68 652.547C2759.46 650.859 2755.53 648.656 2751.87 645.937C2748.21 643.219 2745.26 639.844 2743.01 635.812C2740.76 631.687 2739.64 626.766 2739.64 621.047C2739.64 613.734 2741.98 607.641 2746.67 602.766C2751.35 597.797 2757.45 594.047 2764.95 591.516C2772.45 588.891 2780.46 587.578 2789 587.578Z" fill="#FCD02F"/>
<path d="M2990.3 520.781H3025.59L3097.03 706.406H3059.63L3045.14 666.328H2970.89L2956.12 706.406H2918.58L2990.3 520.781ZM2982.42 635.25H3033.61L3008.16 563.25H3007.73L2982.42 635.25Z" fill="#FCD02F"/>
<path d="M3147.08 706.406H3111.36V590.953H3147.08V609.656H3146.38C3147.03 607.406 3148.82 604.547 3151.72 601.078C3154.72 597.609 3158.85 594.516 3164.1 591.797C3169.35 588.984 3175.68 587.578 3183.08 587.578C3188.43 587.578 3193.25 588.375 3197.57 589.969C3201.97 591.469 3205.11 592.969 3206.99 594.469L3192.93 623.719C3191.71 622.219 3189.41 620.672 3186.04 619.078C3182.75 617.484 3178.63 616.687 3173.66 616.687C3167.75 616.687 3162.83 618.328 3158.89 621.609C3154.96 624.797 3152 628.734 3150.03 633.422C3148.07 638.016 3147.08 642.328 3147.08 646.359V706.406Z" fill="#FCD02F"/>
<path d="M3213.23 590.953H3234.04V543.562H3269.48V590.953H3296.76V620.625H3269.48V662.391C3269.48 667.922 3270.37 672.234 3272.15 675.328C3273.93 678.328 3276.74 679.828 3280.59 679.828C3283.49 679.828 3285.88 679.266 3287.76 678.141C3289.63 676.922 3290.76 676.078 3291.13 675.609L3303.79 701.203C3303.23 701.766 3301.4 702.75 3298.31 704.156C3295.31 705.562 3291.42 706.828 3286.63 707.953C3281.95 709.172 3276.65 709.781 3270.74 709.781C3260.15 709.781 3251.38 706.734 3244.45 700.641C3237.51 694.453 3234.04 684.891 3234.04 671.953V620.625H3213.23V590.953Z" fill="#FCD02F"/>
<path d="M3370.19 587.578C3377.13 587.578 3383.55 588.234 3389.46 589.547C3395.37 590.766 3400.33 592.172 3404.37 593.766C3408.49 595.359 3411.21 596.719 3412.52 597.844L3400.29 619.359C3398.41 617.859 3395.04 616.078 3390.16 614.016C3385.38 611.953 3380.04 610.922 3374.13 610.922C3368.79 610.922 3364.29 611.859 3360.63 613.734C3356.97 615.516 3355.15 618.234 3355.15 621.891C3355.15 625.547 3357.11 628.453 3361.05 630.609C3364.99 632.766 3370.47 634.641 3377.51 636.234C3383.41 637.453 3389.22 639.328 3394.94 641.859C3400.66 644.297 3405.4 647.859 3409.15 652.547C3412.9 657.141 3414.77 663.281 3414.77 670.969C3414.77 678.563 3413.13 684.891 3409.85 689.953C3406.66 694.922 3402.4 698.859 3397.05 701.766C3391.71 704.672 3385.85 706.734 3379.47 707.953C3373.1 709.172 3366.77 709.781 3360.49 709.781C3352.33 709.781 3345.16 708.984 3338.97 707.391C3332.79 705.891 3327.68 704.156 3323.64 702.188C3319.71 700.125 3316.89 698.391 3315.21 696.984L3327.44 673.078C3329.88 675.234 3333.86 677.625 3339.39 680.25C3345.02 682.781 3351.07 684.047 3357.54 684.047C3364.29 684.047 3369.58 682.875 3373.43 680.531C3377.36 678.187 3379.33 675.047 3379.33 671.109C3379.33 668.203 3378.4 665.859 3376.52 664.078C3374.65 662.203 3372.07 660.656 3368.79 659.437C3365.51 658.219 3361.66 657.141 3357.25 656.203C3353.22 655.359 3349.1 654.141 3344.88 652.547C3340.66 650.859 3336.72 648.656 3333.07 645.937C3329.41 643.219 3326.46 639.844 3324.21 635.812C3321.96 631.687 3320.83 626.766 3320.83 621.047C3320.83 613.734 3323.18 607.641 3327.86 602.766C3332.55 597.797 3338.64 594.047 3346.15 591.516C3353.65 588.891 3361.66 587.578 3370.19 587.578Z" fill="#FCD02F"/>
<path d="M1511.05 844.406H1597.3V864.675H1533.58V905.536H1596.22V925.266H1533.58V966.45H1597.3V986.719H1511.05V844.406Z" fill="#FCD02F"/>
<path d="M1616.78 898.205H1633.81V873.623C1633.81 864.783 1635.47 857.595 1638.77 852.061C1642.08 846.455 1646.28 842.358 1651.39 839.77C1656.56 837.111 1661.88 835.781 1667.34 835.781C1674.03 835.781 1679.13 836.716 1682.65 838.584C1686.25 840.381 1688.44 841.639 1689.23 842.358L1680.17 859.608C1679.74 859.177 1678.66 858.422 1676.94 857.344C1675.21 856.194 1672.88 855.619 1669.93 855.619C1667.77 855.619 1665.69 856.122 1663.68 857.128C1661.74 858.134 1660.08 860.111 1658.72 863.058C1657.35 866.005 1656.67 870.317 1656.67 875.995V898.205H1680.93V917.611H1656.67V986.719H1633.81V917.611H1616.78V898.205Z" fill="#FCD02F"/>
<path d="M1718.76 986.719H1695.8V898.205H1718.76V912.975H1718.22C1718.73 911.178 1720.09 908.95 1722.32 906.291C1724.62 903.559 1727.78 901.116 1731.81 898.959C1735.83 896.731 1740.69 895.617 1746.36 895.617C1750.46 895.617 1754.13 896.192 1757.36 897.342C1760.6 898.492 1762.9 899.642 1764.26 900.792L1754.99 919.767C1754.06 918.617 1752.29 917.503 1749.71 916.425C1747.19 915.275 1744.06 914.7 1740.33 914.7C1735.65 914.7 1731.7 916.066 1728.47 918.797C1725.3 921.528 1722.9 924.798 1721.24 928.608C1719.59 932.417 1718.76 935.975 1718.76 939.281V986.719Z" fill="#FCD02F"/>
<path d="M1789.17 947.906C1789.31 952.578 1790.42 956.783 1792.51 960.52C1794.59 964.258 1797.65 967.205 1801.67 969.361C1805.77 971.445 1810.76 972.487 1816.66 972.487C1821.76 972.487 1826.15 971.805 1829.81 970.439C1833.55 969.002 1836.64 967.312 1839.08 965.372C1841.53 963.359 1843.33 961.491 1844.48 959.766L1854.72 973.673C1852.49 976.692 1849.69 979.387 1846.31 981.759C1842.93 984.131 1838.73 985.964 1833.69 987.258C1828.73 988.623 1822.59 989.306 1815.26 989.306C1805.63 989.306 1797.25 987.33 1790.14 983.377C1783.02 979.423 1777.49 973.853 1773.53 966.666C1769.65 959.478 1767.71 951.069 1767.71 941.437C1767.71 932.812 1769.51 925.05 1773.1 918.15C1776.69 911.178 1781.91 905.68 1788.73 901.655C1795.63 897.63 1803.9 895.617 1813.53 895.617C1822.52 895.617 1830.32 897.414 1836.93 901.008C1843.54 904.602 1848.64 909.777 1852.24 916.533C1855.9 923.217 1857.74 931.303 1857.74 940.791C1857.74 941.366 1857.7 942.552 1857.63 944.348C1857.63 946.145 1857.56 947.331 1857.41 947.906H1789.17ZM1836.17 931.087C1836.1 928.787 1835.31 926.164 1833.8 923.217C1832.36 920.27 1830.03 917.719 1826.79 915.562C1823.56 913.334 1819.25 912.22 1813.86 912.22C1808.32 912.22 1803.83 913.298 1800.38 915.455C1796.93 917.539 1794.38 920.055 1792.72 923.002C1791.07 925.877 1790.1 928.572 1789.81 931.087H1836.17Z" fill="#FCD02F"/>
<path d="M1879.07 986.719V898.205H1902.03V986.719H1879.07ZM1890.82 871.683C1886.94 871.683 1883.6 870.281 1880.79 867.478C1878.06 864.675 1876.7 861.333 1876.7 857.452C1876.7 853.57 1878.06 850.228 1880.79 847.425C1883.6 844.55 1886.94 843.112 1890.82 843.112C1893.41 843.112 1895.78 843.795 1897.94 845.161C1900.16 846.455 1901.92 848.18 1903.22 850.336C1904.58 852.42 1905.27 854.792 1905.27 857.452C1905.27 861.333 1903.87 864.675 1901.06 867.478C1898.26 870.281 1894.84 871.683 1890.82 871.683Z" fill="#FCD02F"/>
<path d="M1984.87 844.406H2028.64C2037.56 844.406 2045.61 845.916 2052.79 848.934C2060.05 851.953 2065.84 856.589 2070.15 862.842C2074.47 869.095 2076.62 877.145 2076.62 886.992C2076.62 896.839 2074.47 905.069 2070.15 911.681C2065.84 918.222 2060.05 923.145 2052.79 926.452C2045.61 929.758 2037.56 931.411 2028.64 931.411H2007.51V986.719H1984.87V844.406ZM2007.51 912.867H2022.39C2027.93 912.867 2032.96 912.077 2037.48 910.495C2042.09 908.842 2045.71 906.147 2048.37 902.409C2051.11 898.672 2052.47 893.712 2052.47 887.531C2052.47 881.278 2051.11 876.391 2048.37 872.869C2045.71 869.275 2042.09 866.723 2037.48 865.214C2032.96 863.705 2027.93 862.95 2022.39 862.95H2007.51V912.867Z" fill="#FCD02F"/>
<path d="M2161.17 986.719V970.331C2160.59 972.056 2158.94 974.428 2156.21 977.447C2153.55 980.466 2149.88 983.197 2145.21 985.641C2140.61 988.084 2135.15 989.306 2128.82 989.306C2120.55 989.306 2113.12 987.33 2106.5 983.377C2099.89 979.423 2094.68 973.925 2090.87 966.881C2087.06 959.837 2085.15 951.716 2085.15 942.516C2085.15 933.316 2087.06 925.194 2090.87 918.15C2094.68 911.106 2099.89 905.608 2106.5 901.655C2113.12 897.63 2120.55 895.617 2128.82 895.617C2135 895.617 2140.36 896.695 2144.89 898.852C2149.41 901.008 2153.04 903.487 2155.77 906.291C2158.58 909.094 2160.3 911.537 2160.95 913.622V898.205H2183.81V986.719H2161.17ZM2107.9 942.516C2107.9 948.194 2109.16 953.153 2111.68 957.394C2114.19 961.634 2117.46 964.905 2121.49 967.205C2125.59 969.505 2129.97 970.655 2134.64 970.655C2139.67 970.655 2144.13 969.469 2148.01 967.097C2151.96 964.725 2155.06 961.455 2157.28 957.286C2159.58 953.045 2160.73 948.122 2160.73 942.516C2160.73 936.909 2159.58 932.022 2157.28 927.853C2155.06 923.612 2151.96 920.306 2148.01 917.934C2144.13 915.491 2139.67 914.269 2134.64 914.269C2129.97 914.269 2125.59 915.455 2121.49 917.827C2117.46 920.127 2114.19 923.397 2111.68 927.637C2109.16 931.878 2107.9 936.837 2107.9 942.516Z" fill="#FCD02F"/>
<path d="M2229.42 986.719H2206.45V898.205H2229.42V912.975H2228.88C2229.38 911.178 2230.75 908.95 2232.97 906.291C2235.27 903.559 2238.44 901.116 2242.46 898.959C2246.49 896.731 2251.34 895.617 2257.02 895.617C2261.11 895.617 2264.78 896.192 2268.01 897.342C2271.25 898.492 2273.55 899.642 2274.91 900.792L2265.64 919.767C2264.71 918.617 2262.95 917.503 2260.36 916.425C2257.84 915.275 2254.72 914.7 2250.98 914.7C2246.31 914.7 2242.35 916.066 2239.12 918.797C2235.96 921.528 2233.55 924.798 2231.9 928.608C2230.24 932.417 2229.42 935.975 2229.42 939.281V986.719Z" fill="#FCD02F"/>
<path d="M2287.8 986.719V898.205H2310.77V986.719H2287.8ZM2299.55 871.683C2295.67 871.683 2292.33 870.281 2289.53 867.478C2286.79 864.675 2285.43 861.333 2285.43 857.452C2285.43 853.57 2286.79 850.228 2289.53 847.425C2292.33 844.55 2295.67 843.112 2299.55 843.112C2302.14 843.112 2304.51 843.795 2306.67 845.161C2308.9 846.455 2310.66 848.18 2311.95 850.336C2313.32 852.42 2314 854.792 2314 857.452C2314 861.333 2312.6 864.675 2309.79 867.478C2306.99 870.281 2303.58 871.683 2299.55 871.683Z" fill="#FCD02F"/>
<path d="M2372.82 895.617C2377.77 895.617 2382.37 896.084 2386.62 897.019C2390.86 897.953 2394.49 899.067 2397.51 900.361C2400.52 901.655 2402.61 902.733 2403.76 903.595L2395.35 917.827C2393.91 916.605 2391.32 915.203 2387.59 913.622C2383.92 912.041 2379.79 911.25 2375.19 911.25C2370.59 911.25 2366.71 912.077 2363.54 913.73C2360.38 915.383 2358.8 917.862 2358.8 921.169C2358.8 924.403 2360.45 926.991 2363.76 928.931C2367.14 930.872 2371.7 932.489 2377.45 933.783C2382.2 934.861 2386.72 936.37 2391.04 938.311C2395.35 940.18 2398.87 942.875 2401.6 946.397C2404.41 949.847 2405.81 954.483 2405.81 960.305C2405.81 965.839 2404.62 970.475 2402.25 974.212C2399.95 977.878 2396.86 980.825 2392.98 983.053C2389.1 985.281 2384.78 986.862 2380.04 987.797C2375.37 988.803 2370.66 989.306 2365.91 989.306C2360.09 989.306 2354.88 988.731 2350.28 987.581C2345.75 986.431 2341.98 985.102 2338.96 983.592C2335.94 982.011 2333.79 980.681 2332.49 979.603L2340.9 963.647C2342.77 965.444 2345.83 967.348 2350.07 969.361C2354.31 971.302 2359.05 972.272 2364.3 972.272C2369.9 972.272 2374.4 971.194 2377.77 969.037C2381.15 966.881 2382.84 964.006 2382.84 960.412C2382.84 957.753 2382.02 955.597 2380.36 953.944C2378.78 952.291 2376.59 950.961 2373.79 949.955C2370.98 948.948 2367.86 948.05 2364.41 947.259C2361.17 946.469 2357.9 945.462 2354.59 944.241C2351.36 942.947 2348.38 941.294 2345.65 939.281C2342.91 937.197 2340.72 934.609 2339.07 931.519C2337.42 928.428 2336.59 924.798 2336.59 920.63C2336.59 915.311 2338.28 910.783 2341.66 907.045C2345.03 903.308 2349.49 900.469 2355.03 898.528C2360.56 896.587 2366.49 895.617 2372.82 895.617Z" fill="#FCD02F"/>
</svg>
